<svg width="414" height="163" viewBox="0 0 414 163" fill="none" xmlns="http://www.w3.org/2000/svg">
<rect width="414" height="163" fill="white"/>
<path d="M106.668 31.648V41.632H108.204V31.648H106.668ZM106.764 26.88C105.164 29.216 102.892 31.12 99.9479 32.592L100.86 33.968C103.516 32.64 105.708 30.752 107.436 28.304C108.876 30.544 111.068 32.432 114.012 33.952L114.924 32.56C111.708 30.928 109.436 29.024 108.108 26.88H106.764ZM123.856 26.912H122.32C122.32 27.52 122.304 28.352 122.304 29.424C122.176 34.016 119.952 37.616 115.632 40.24L116.56 41.6C119.92 39.424 122.128 36.672 123.184 33.344C124.4 36.768 126.544 39.52 129.616 41.568L130.624 40.24C126.976 38 124.672 34.752 123.744 30.496C123.808 29.504 123.856 28.32 123.856 26.912ZM132.308 29.84V31.264H136.372C135.428 32 133.86 32.688 131.684 33.312L132.548 34.704C135.172 33.728 136.98 32.576 138.004 31.264H138.068V33.952H139.572V31.952C141.412 32.752 143.204 33.696 144.932 34.752L145.972 33.584C144.324 32.752 142.5 31.984 140.516 31.264H145.428V29.84H139.572V28.736C141.364 28.608 142.932 28.448 144.292 28.224L143.556 26.96C140.74 27.36 137.284 27.568 133.188 27.568L133.636 28.896C135.204 28.896 136.676 28.864 138.068 28.816V29.84H132.308ZM137.3 33.984C137.044 34.384 136.756 34.8 136.468 35.232H131.94V36.656H135.428C134.98 37.232 134.516 37.808 134.036 38.416C135.316 38.704 136.596 39.024 137.876 39.408C136.372 40 134.5 40.304 132.26 40.304L133.108 41.632C135.86 41.568 138.084 41.024 139.78 40C141.252 40.48 142.74 41.04 144.228 41.664L145.172 40.416C143.796 39.872 142.436 39.408 141.124 39.008C141.764 38.4 142.356 37.616 142.916 36.656H145.748V35.232H138.244L138.772 34.432L137.3 33.984ZM141.3 36.656C140.82 37.376 140.212 38 139.508 38.528C138.42 38.208 137.364 37.952 136.34 37.744C136.612 37.424 136.9 37.056 137.22 36.656H141.3ZM149.336 41.504C150.376 41.504 150.904 40.976 150.904 39.952V35.552C151.352 35.376 151.816 35.2 152.264 35.008V33.472C151.816 33.68 151.368 33.872 150.904 34.064V31.28H152.376V29.824H150.904V26.944H149.384V29.824H147.288V31.28H149.384V34.592C148.632 34.816 147.864 35.008 147.096 35.168L147.48 36.608C148.12 36.448 148.744 36.256 149.384 36.064V39.568C149.384 39.92 149.192 40.112 148.808 40.112C148.344 40.112 147.848 40.08 147.32 40.032L147.656 41.504H149.336ZM161.608 33.168L157 33.36V29.52C158.376 29.232 159.688 28.816 160.968 28.304L160.232 27.04C158.36 27.84 155.912 28.384 152.888 28.672L153.352 30.032C154.056 29.968 154.776 29.888 155.48 29.792V33.424L152.824 33.52V35.008L155.48 34.896V39.6C155.48 40.752 156.024 41.328 157.128 41.328H159.976C160.552 41.328 161 41.152 161.304 40.832C161.624 40.48 161.832 39.392 161.96 37.584L160.52 37.12C160.456 38.464 160.376 39.248 160.248 39.504C160.12 39.744 159.944 39.872 159.688 39.872H157.608C157.192 39.872 157 39.664 157 39.28V34.832L161.608 34.64V33.168ZM177.292 31.68H175.516C175.948 31.008 176.38 30.176 176.796 29.216L175.372 28.688C174.988 29.744 174.508 30.736 173.964 31.68H167.74V34.912H168.572V35.76H169.244C169.66 36.88 170.364 37.872 171.324 38.752C170.156 39.328 168.748 39.808 167.1 40.176L167.9 41.616C169.74 41.136 171.308 40.512 172.604 39.744C173.724 40.496 175.132 41.136 176.812 41.648L177.708 40.272C176.268 39.872 175.02 39.376 173.964 38.8C175.052 37.904 175.852 36.864 176.332 35.68V34.912H177.292V31.68ZM170.716 35.76H174.732C174.236 36.592 173.548 37.312 172.652 37.952C171.804 37.312 171.164 36.576 170.716 35.76ZM169.196 34.384V33.136H175.82V34.384H169.196ZM172.428 28.912L171.132 29.264C171.564 29.984 171.932 30.72 172.22 31.456L173.452 30.992C173.212 30.368 172.876 29.68 172.428 28.912ZM169.628 28.976L168.332 29.328C168.764 30.032 169.116 30.736 169.404 31.472L170.636 31.008C170.412 30.4 170.076 29.712 169.628 28.976ZM176.476 26.896C174.092 27.248 171.164 27.424 167.676 27.424L168.124 28.784C171.9 28.784 174.924 28.56 177.196 28.144L176.476 26.896ZM164.796 41.472C165.692 41.472 166.14 41.008 166.14 40.112V35.568C166.556 35.36 166.988 35.152 167.404 34.928V33.392C166.988 33.632 166.556 33.856 166.14 34.064V31.152H167.5V29.696H166.14V26.896H164.652V29.696H163.004V31.152H164.652V34.688C164.06 34.912 163.468 35.088 162.86 35.232L163.228 36.72C163.708 36.56 164.172 36.384 164.652 36.208V39.744C164.652 39.984 164.524 40.112 164.268 40.112C163.884 40.112 163.5 40.08 163.1 40.016L163.436 41.472H164.796ZM182.704 33.696C183.12 34.256 183.616 34.976 184.176 35.84L185.056 34.512C184.272 33.616 183.488 32.8 182.704 32.08V31.344H184.688V29.888H182.704V26.896H181.2V29.888H178.816V31.344H181.136C180.576 33.2 179.696 34.848 178.48 36.304L179.152 38.032C179.984 36.784 180.656 35.392 181.2 33.872V41.584H182.704V33.696ZM190.848 29.184C190.496 31.44 189.824 33.456 188.816 35.216C187.808 33.408 187.216 31.392 187.024 29.184H190.848ZM187.936 36.592C186.88 38.048 185.536 39.312 183.92 40.384L184.896 41.616C186.432 40.608 187.76 39.392 188.848 37.968C189.808 39.28 191.008 40.512 192.416 41.648L193.456 40.416C191.952 39.296 190.72 38.048 189.728 36.672C191.008 34.56 191.856 32.064 192.304 29.168V27.728H184.976V29.184H185.568C185.824 31.904 186.608 34.368 187.936 36.592ZM198.212 28.944V30.24C198.164 34.976 196.852 38.432 194.276 40.592L195.444 41.616C197.524 39.84 198.852 37.296 199.428 34C200.116 35.488 201.092 36.848 202.356 38.08C201.076 38.976 199.508 39.728 197.636 40.352L198.516 41.76C200.532 41.104 202.228 40.24 203.62 39.168C204.788 40.096 206.196 40.928 207.828 41.68L208.836 40.32C207.3 39.664 205.956 38.928 204.804 38.112C206.26 36.64 207.22 34.832 207.684 32.704V31.808H204.5C204.788 30.848 205.092 29.728 205.38 28.448V27.456H195.588V28.944H198.212ZM203.54 37.12C201.572 35.408 200.308 33.392 199.732 31.072C199.732 30.8 199.748 30.528 199.748 30.24V28.944H203.716C203.316 30.8 202.948 32.224 202.612 33.2H206.084C205.604 34.672 204.756 35.984 203.54 37.12ZM218.472 26.912V29.328H214.808V30.8H218.472V33.44H214.04V34.912H217.576C216.456 37.552 215.544 39.184 214.84 39.808C214.76 39.856 214.648 39.904 214.52 39.952L214.872 41.28C217.672 40.992 220.264 40.624 222.648 40.16C222.856 40.64 223.064 41.168 223.272 41.712L224.712 41.072C224.008 39.248 223.176 37.552 222.232 35.952L220.76 36.432C221.192 37.168 221.624 37.968 222.04 38.832C220.312 39.184 218.568 39.472 216.808 39.664C217.512 38.64 218.312 37.056 219.224 34.912H224.424V33.44H220.008V30.8H223.992V29.328H220.008V26.912H218.472ZM211.528 27.04L210.424 28.096C211.56 28.96 212.44 29.76 213.048 30.512L214.136 29.408C213.416 28.624 212.552 27.84 211.528 27.04ZM211.128 30.784L210.04 31.84C211.08 32.704 211.88 33.52 212.44 34.272L213.544 33.184C212.872 32.384 212.072 31.584 211.128 30.784ZM212.68 35.296C211.992 37.184 211.176 39.04 210.248 40.848L211.768 41.52C212.6 39.744 213.368 37.856 214.056 35.856L212.68 35.296ZM239.084 34.384V31.952H240.396V30.624H239.084V28.176H235.692V26.88H234.156V28.176H231.356V29.488H234.156V30.624H230.524V31.952H234.156V33.072H231.26V34.384H234.156V35.472H231.084V36.8H234.156V37.952H230.3V39.344H234.156V41.68H235.692V39.344H240.236V37.952H235.692V36.8H239.356V35.472H235.692V34.384H239.084ZM235.692 29.488H237.66V30.624H235.692V29.488ZM235.692 31.952H237.66V33.072H235.692V31.952ZM227.708 35.216V41.664H229.18V33.504C229.596 32.912 229.948 32.288 230.236 31.632L228.924 31.024C228.236 32.576 227.164 33.936 225.724 35.12L226.172 36.56C226.716 36.128 227.228 35.68 227.708 35.216ZM228.796 26.768C228.124 28.256 227.084 29.552 225.676 30.672L226.124 32.144C228.012 30.736 229.34 29.152 230.124 27.392L228.796 26.768ZM242.24 27.824V29.072H247.984V29.808H243.072V31.04H247.984V31.792H241.792V33.088H255.68V31.792H249.488V31.04H254.352V29.808H249.488V29.072H255.168V27.824H249.488V26.912H247.984V27.824H242.24ZM253.824 33.792H243.6V38.832H245.056V35.12H252.368V38.704H253.824V33.792ZM249.728 38.08L248.896 39.328C250.832 39.92 252.72 40.72 254.544 41.744L255.408 40.432C253.696 39.52 251.808 38.736 249.728 38.08ZM248.016 35.792C247.808 37.04 247.264 38 246.4 38.688C245.504 39.36 244.064 39.888 242.064 40.24L242.672 41.68C245.04 41.2 246.672 40.544 247.6 39.696C248.656 38.752 249.28 37.504 249.488 35.936L248.016 35.792ZM260.58 26.88C259.78 29.296 258.564 31.408 256.916 33.216L257.412 34.832C257.94 34.288 258.436 33.744 258.9 33.184V41.68H260.404V31.024C261.06 29.92 261.588 28.752 262.004 27.536L260.58 26.88ZM261.188 33.552V35.04H265.7V39.616H261.988V41.104H270.948V39.616H267.22V35.04H271.748V33.552H267.22V29.296H271.044V27.824H262.228V29.296H265.7V33.552H261.188ZM273.144 28.064V29.44H279.368V30.576H274.024V31.936H286.28V30.576H280.904V29.44H287.112V28.064H280.904V26.896H279.368V28.064H273.144ZM279.528 34.192V35.76H275.832C275.832 35.568 275.848 35.36 275.848 35.168V34.192H279.528ZM281.064 35.76V34.192H284.52V35.76H281.064ZM275.704 37.104H285.992V32.864H274.344V35.168C274.328 37.408 273.8 39.248 272.744 40.656L274.008 41.776C274.904 40.416 275.464 38.864 275.704 37.104ZM294.108 27.664H289.036V40.224H290.556V39.024H294.108V27.664ZM290.556 37.536V33.968H292.636V37.536H290.556ZM290.556 32.496V29.152H292.636V32.496H290.556ZM297.132 32.624H300.892V35.04H297.132V32.624ZM300.892 31.2H297.132V28.768H300.892V31.2ZM297.036 36.464H300.892V39.312C300.892 39.824 300.684 40.08 300.284 40.08C299.676 40.08 299.02 40.048 298.316 40.016L298.732 41.504H300.78C301.884 41.504 302.444 40.944 302.444 39.856V27.312H295.596V35.04C295.564 37.312 294.988 39.184 293.852 40.656L295.052 41.776C296.14 40.368 296.812 38.592 297.036 36.464ZM309.904 26.816V29.488H305.296V30.944H309.904V33.792H304.384V35.248H309.904V41.664H311.424V35.248H316.56C316.512 37.024 316.4 38.032 316.224 38.256C316.048 38.464 315.76 38.576 315.36 38.608C314.832 38.608 314.272 38.592 313.664 38.592L314.08 40.016H315.104C315.488 40.016 315.888 39.968 316.272 39.888C316.72 39.792 317.04 39.616 317.248 39.392C317.76 38.848 318.032 36.992 318.048 33.792H315.824L316.128 30.224V29.488H311.424V26.816H309.904ZM311.424 33.792V30.944H314.608L314.336 33.792H311.424ZM315.408 26.848L314.624 28C315.712 28.512 316.768 29.2 317.792 30.096L318.592 28.848C317.632 28.08 316.576 27.408 315.408 26.848Z" fill="black"/>
<path d="M52.6547 67.706V76.386H53.6907V67.706H52.6547ZM52.7247 63.576C51.3107 65.676 49.2947 67.398 46.6767 68.728L47.2787 69.638C49.6587 68.434 51.6187 66.726 53.1727 64.514C54.4607 66.53 56.4347 68.21 59.0667 69.582L59.6687 68.672C56.8127 67.202 54.7967 65.508 53.6207 63.576H52.7247ZM67.3767 63.59H66.3547C66.3547 64.122 66.3407 64.864 66.3267 65.816C66.2007 69.848 64.2127 73.054 60.3627 75.42L60.9787 76.316C64.0867 74.314 66.0747 71.794 66.9147 68.742C67.9087 71.906 69.8407 74.426 72.6967 76.302L73.3547 75.42C70.0927 73.418 68.0627 70.506 67.2787 66.698C67.3347 65.83 67.3767 64.794 67.3767 63.59ZM81.2307 67.202C82.2387 68.462 83.9187 69.47 86.2707 70.24L86.7187 69.288C84.7307 68.77 83.2327 68.07 82.2527 67.202H86.2987V66.264H81.0627V65.004C82.6587 64.892 84.0727 64.738 85.2767 64.542L84.7867 63.688C82.3647 64.052 79.3267 64.248 75.6587 64.248L75.9667 65.144C77.4227 65.144 78.7947 65.116 80.0547 65.06V66.264H74.9027V67.202H78.8647C78.0247 68 76.5267 68.714 74.3707 69.358L74.9447 70.268C77.3527 69.4 79.0047 68.378 79.8867 67.202H80.0547V69.708H81.0627V67.202H81.2307ZM74.5807 70.982V71.92H77.8707C77.4647 72.452 77.0307 72.998 76.5827 73.544C77.7867 73.81 78.9767 74.132 80.1807 74.51C78.7807 75.168 77.0167 75.504 74.8887 75.504L75.4487 76.386C77.9267 76.33 79.9147 75.826 81.3987 74.888C82.7427 75.336 84.1007 75.84 85.4447 76.414L86.0607 75.588C84.7727 75.084 83.5267 74.622 82.2947 74.23C82.9387 73.642 83.5267 72.872 84.0447 71.92H86.5787V70.982H79.7187C79.9147 70.702 80.1107 70.394 80.3347 70.072L79.3547 69.778C79.1027 70.17 78.8227 70.562 78.5427 70.982H74.5807ZM79.0467 71.92H82.9807C82.5187 72.704 81.9307 73.362 81.2167 73.894C80.1527 73.586 79.1307 73.32 78.1227 73.096C78.4027 72.746 78.7107 72.354 79.0467 71.92ZM100.349 68.77L96.1767 69.344V65.718C97.4507 65.466 98.6547 65.088 99.8027 64.612L99.3267 63.772C97.5907 64.514 95.4487 65.004 92.8867 65.228L93.1947 66.124C93.8527 66.068 94.5107 65.998 95.1687 65.9V69.484L92.7607 69.82L92.9147 70.786L95.1687 70.478V74.79C95.1687 75.672 95.6027 76.12 96.4707 76.12H98.9907C99.4947 76.12 99.8727 75.966 100.125 75.686C100.405 75.35 100.587 74.412 100.671 72.872L99.7187 72.564C99.6627 73.824 99.5647 74.58 99.4247 74.832C99.2987 75.042 99.0887 75.154 98.8087 75.154H96.7787C96.3727 75.154 96.1767 74.958 96.1767 74.58V70.338L100.503 69.75L100.349 68.77ZM89.7227 76.274C90.5347 76.274 90.9407 75.882 90.9407 75.112V70.996C91.3887 70.828 91.8367 70.646 92.2707 70.45V69.442C91.8367 69.638 91.3887 69.834 90.9407 70.016V67.216H92.3407V66.25H90.9407V63.618H89.9187V66.25H87.9727V67.216H89.9187V70.366C89.2327 70.59 88.5327 70.772 87.8327 70.926L88.0847 71.878C88.7007 71.71 89.3167 71.542 89.9187 71.346V74.86C89.9187 75.182 89.7367 75.35 89.3727 75.35C88.9527 75.35 88.5047 75.322 88.0287 75.294L88.2387 76.274H89.7227ZM114.049 67.846H112.369C112.789 67.216 113.195 66.432 113.587 65.508L112.649 65.158C112.285 66.124 111.851 67.02 111.333 67.846H105.887V70.506H106.559V71.15H107.133C107.539 72.228 108.225 73.18 109.177 73.992C108.113 74.58 106.811 75.042 105.285 75.406L105.817 76.344C107.469 75.896 108.883 75.336 110.031 74.636C111.039 75.336 112.313 75.91 113.853 76.372L114.441 75.476C113.055 75.084 111.879 74.594 110.913 74.02C111.977 73.194 112.761 72.214 113.237 71.094V70.506H114.049V67.846ZM108.113 71.15H112.187C111.697 72.018 110.983 72.788 110.059 73.446C109.177 72.774 108.533 72.018 108.113 71.15ZM106.853 70.226V68.812H113.069V70.226H106.853ZM109.751 65.34L108.883 65.564C109.261 66.194 109.583 66.838 109.835 67.496L110.675 67.188C110.451 66.628 110.143 66.012 109.751 65.34ZM107.301 65.396L106.433 65.634C106.811 66.25 107.119 66.866 107.371 67.51L108.211 67.202C108.001 66.656 107.693 66.054 107.301 65.396ZM113.489 63.632C111.445 63.968 108.883 64.136 105.789 64.136L106.083 65.046C109.359 65.046 111.991 64.85 113.965 64.472L113.489 63.632ZM103.199 76.246C103.885 76.246 104.235 75.896 104.235 75.224V71.052C104.655 70.856 105.075 70.646 105.481 70.422V69.4C105.061 69.624 104.655 69.848 104.235 70.044V67.104H105.537V66.138H104.235V63.576H103.241V66.138H101.687V67.104H103.241V70.464C102.709 70.66 102.149 70.842 101.589 70.982L101.827 71.976C102.303 71.822 102.765 71.654 103.241 71.472V74.972C103.241 75.224 103.101 75.35 102.849 75.35C102.513 75.35 102.163 75.322 101.799 75.28L102.009 76.246H103.199ZM118.691 69.106C119.125 69.638 119.643 70.338 120.245 71.206L120.819 70.352C120.105 69.512 119.391 68.742 118.691 68.07V67.272H120.539V66.306H118.691V63.576H117.683V66.306H115.485V67.272H117.655C117.165 69.022 116.339 70.576 115.191 71.948L115.639 73.082C116.493 71.892 117.179 70.562 117.683 69.078V76.344H118.691V69.106ZM126.195 65.382C125.859 67.566 125.201 69.498 124.193 71.178C123.171 69.47 122.583 67.538 122.415 65.382H126.195ZM123.605 72.074C122.653 73.404 121.435 74.552 119.965 75.532L120.609 76.344C122.023 75.42 123.227 74.3 124.207 72.97C125.075 74.188 126.181 75.322 127.497 76.358L128.183 75.546C126.811 74.524 125.691 73.376 124.795 72.116C125.971 70.24 126.769 67.986 127.175 65.368V64.416H120.875V65.382H121.435C121.631 67.832 122.359 70.058 123.605 72.074ZM132.531 65.172V66.46C132.489 70.688 131.313 73.754 128.989 75.672L129.759 76.358C131.691 74.734 132.895 72.354 133.357 69.246C133.987 70.786 134.953 72.158 136.255 73.39C135.107 74.244 133.665 74.958 131.929 75.546L132.517 76.484C134.323 75.868 135.849 75.084 137.081 74.104C138.145 74.972 139.433 75.742 140.945 76.428L141.603 75.532C140.175 74.916 138.929 74.202 137.865 73.418C139.223 72.102 140.105 70.478 140.511 68.574V67.986H137.683C137.935 67.104 138.201 66.054 138.467 64.836V64.178H130.123V65.172H132.531ZM137.025 72.746C135.205 71.178 134.057 69.302 133.553 67.118C133.553 66.894 133.567 66.684 133.567 66.46V65.172H137.361C137.025 66.824 136.703 68.056 136.423 68.896H139.461C139.041 70.352 138.229 71.64 137.025 72.746ZM150.221 63.562V65.816H146.903V66.796H150.221V69.414H146.231V70.394H149.549C148.485 72.9 147.617 74.44 146.959 75.014C146.903 75.042 146.833 75.084 146.749 75.112L146.987 75.994C149.465 75.756 151.761 75.434 153.875 75.042C154.071 75.49 154.253 75.952 154.449 76.442L155.401 76.022C154.771 74.426 154.029 72.914 153.189 71.514L152.223 71.836C152.643 72.536 153.063 73.306 153.469 74.146C151.733 74.482 150.011 74.748 148.289 74.93C148.961 74.048 149.745 72.536 150.641 70.394H155.233V69.414H151.257V66.796H154.855V65.816H151.257V63.562H150.221ZM143.865 63.786L143.151 64.472C144.131 65.214 144.887 65.914 145.447 66.586L146.161 65.858C145.545 65.158 144.775 64.472 143.865 63.786ZM143.529 67.062L142.815 67.748C143.711 68.504 144.411 69.204 144.915 69.862L145.643 69.148C145.069 68.448 144.369 67.748 143.529 67.062ZM145.139 70.94C144.551 72.62 143.837 74.258 143.025 75.854L144.033 76.288C144.775 74.734 145.447 73.068 146.049 71.304L145.139 70.94ZM167.925 69.96V67.818H169.171V66.936H167.925V64.78H164.943V63.562H163.907V64.78H161.331V65.676H163.907V66.936H160.617V67.818H163.907V69.064H161.247V69.96H163.907V71.15H161.079V72.046H163.907V73.348H160.393V74.272H163.907V76.428H164.943V74.272H169.017V73.348H164.943V72.046H168.247V71.15H164.943V69.96H167.925ZM164.943 65.676H166.973V66.936H164.943V65.676ZM164.943 67.818H166.973V69.064H164.943V67.818ZM158.265 70.478V76.4H159.245V69.288C159.623 68.756 159.945 68.182 160.225 67.594L159.343 67.202C158.727 68.588 157.747 69.82 156.403 70.912L156.697 71.878C157.257 71.444 157.789 70.982 158.265 70.478ZM159.217 63.52C158.629 64.822 157.677 65.984 156.375 66.992L156.669 67.972C158.251 66.796 159.399 65.452 160.099 63.926L159.217 63.52ZM170.831 64.472V65.312H175.969V66.222H171.559V67.048H175.969V67.986H170.439V68.854H182.507V67.986H176.977V67.048H181.345V66.222H176.977V65.312H182.059V64.472H176.977V63.59H175.969V64.472H170.831ZM180.771 69.68H172.133V73.978H173.099V70.576H179.805V73.866H180.771V69.68ZM177.229 73.418L176.683 74.244C178.405 74.79 180.071 75.532 181.695 76.484L182.269 75.616C180.757 74.762 179.077 74.034 177.229 73.418ZM175.997 71.318C175.815 72.466 175.339 73.362 174.555 74.006C173.757 74.636 172.469 75.112 170.691 75.448L171.097 76.4C173.127 75.98 174.541 75.406 175.339 74.678C176.249 73.866 176.795 72.774 176.977 71.416L175.997 71.318ZM195.465 64.024C193.505 64.584 191.041 64.878 188.073 64.878L188.395 65.83C189.459 65.83 190.467 65.788 191.419 65.718V69.554H187.345V70.534H191.419V74.93H188.045V75.924H195.829V74.93H192.427V70.534H196.529V69.554H192.427V65.62C193.771 65.466 194.947 65.214 195.955 64.878L195.465 64.024ZM186.953 63.59C186.267 65.704 185.175 67.58 183.663 69.204L183.985 70.282C184.531 69.736 185.035 69.162 185.483 68.574V76.428H186.491V67.076C187.051 66.124 187.527 65.102 187.891 64.024L186.953 63.59ZM197.825 64.696V65.62H203.355V66.894H198.595V67.804H209.179V66.894H204.391V65.62H209.907V64.696H204.391V63.548H203.355V64.696H197.825ZM203.495 69.722V71.43H199.939C199.953 71.206 199.967 70.996 199.967 70.772V69.722H203.495ZM204.503 71.43V69.722H207.919V71.43H204.503ZM199.855 72.326H208.899V68.826H198.973V70.772C198.959 72.802 198.469 74.454 197.503 75.742L198.329 76.484C199.141 75.28 199.645 73.894 199.855 72.326ZM215.935 64.36H211.777V75.126H212.785V74.02H215.935V64.36ZM212.785 73.026V69.596H214.969V73.026H212.785ZM212.785 68.63V65.354H214.969V68.63H212.785ZM218.469 68.392H222.179V70.814H218.469V68.392ZM222.179 67.454H218.469V64.99H222.179V67.454ZM218.413 71.752H222.179V74.636C222.179 75.098 221.983 75.336 221.591 75.336C221.045 75.336 220.457 75.308 219.813 75.28L220.079 76.274H221.913C222.767 76.274 223.201 75.84 223.201 75V64.024H217.461V70.632C217.433 72.69 216.943 74.384 215.963 75.728L216.761 76.456C217.685 75.224 218.231 73.656 218.413 71.752ZM229.999 63.506V65.956H225.827V66.922H229.999V69.722H225.029V70.688H229.999V76.414H231.007V70.688H235.823C235.781 72.452 235.669 73.446 235.473 73.684C235.291 73.908 234.997 74.02 234.577 74.034C234.157 74.034 233.695 74.02 233.219 74.02L233.485 74.972H234.409C234.717 74.972 235.011 74.93 235.319 74.874C235.683 74.79 235.963 74.65 236.159 74.44C236.579 73.978 236.803 72.41 236.817 69.722H234.829L235.109 66.446V65.956H231.007V63.506H229.999ZM231.007 69.722V66.922H234.115L233.849 69.722H231.007ZM234.535 63.562L234.017 64.318C234.983 64.794 235.921 65.452 236.845 66.292L237.377 65.452C236.523 64.724 235.571 64.094 234.535 63.562ZM243.343 66.138V67.104H247.921C246.885 69.582 245.205 71.612 242.853 73.18L243.427 74.118C245.919 72.284 247.683 69.946 248.719 67.104H248.817V72.564H245.933V73.53H248.817V76.4H249.853V73.53H252.849V72.564H249.853V67.104H249.965C250.917 69.638 252.625 71.92 255.089 73.936L255.775 73.068C253.367 71.318 251.687 69.33 250.749 67.104H255.313V66.138H249.853V63.604H248.817V66.138H243.343ZM263.539 63.59H262.517C262.517 64.122 262.503 64.864 262.489 65.816C262.363 69.848 260.375 73.054 256.525 75.42L257.141 76.316C260.249 74.314 262.237 71.794 263.077 68.742C264.071 71.906 266.003 74.426 268.859 76.302L269.517 75.42C266.255 73.418 264.225 70.506 263.441 66.698C263.497 65.83 263.539 64.794 263.539 63.59ZM273.347 63.478C272.689 65.662 271.625 67.608 270.169 69.288L270.505 70.366C271.051 69.778 271.555 69.148 272.031 68.49V76.428H273.053V66.838C273.543 65.914 273.963 64.948 274.299 63.912L273.347 63.478ZM275.125 64.192V68.602H277.911V70.128H274.019V71.108H276.917C276.077 72.62 274.985 73.824 273.641 74.748L274.215 75.658C275.629 74.566 276.805 73.054 277.743 71.108H277.911V76.4H278.919V71.108H279.087C279.997 72.914 281.145 74.426 282.545 75.644L283.189 74.762C281.803 73.726 280.711 72.508 279.913 71.108H282.951V70.128H278.919V68.602H281.733V64.192H275.125ZM280.739 67.636H276.119V65.158H280.739V67.636ZM292.731 65.214V74.93H290.771V67.524H289.791V74.93H288.363V75.924H296.931V74.93H293.753V70.086H296.455V69.148H293.753V65.214H296.651V64.22H288.797V65.214H292.731ZM285.759 63.702L285.059 64.36C286.039 65.13 286.809 65.858 287.383 66.558L288.069 65.858C287.439 65.144 286.669 64.43 285.759 63.702ZM284.051 67.846V68.812H286.081V74.258C286.081 74.482 285.983 74.678 285.787 74.846L286.179 75.756C287.089 75.126 287.943 74.412 288.755 73.628L288.489 72.55C287.971 73.054 287.495 73.502 287.047 73.894V67.846H284.051ZM299.739 73.334C299.459 73.334 299.249 73.404 299.081 73.572C298.913 73.726 298.829 73.936 298.829 74.202C298.829 74.44 298.913 74.65 299.081 74.818C299.249 74.986 299.445 75.07 299.683 75.07C299.823 75.07 299.935 75.042 299.991 75.014C299.991 75.35 299.893 75.658 299.683 75.952C299.459 76.232 299.165 76.442 298.801 76.568V77.254C299.389 77.1 299.879 76.792 300.243 76.344C300.607 75.868 300.789 75.322 300.789 74.706C300.789 74.3 300.691 73.978 300.509 73.726C300.313 73.46 300.047 73.334 299.739 73.334ZM311.843 66.138V67.104H316.421C315.385 69.582 313.705 71.612 311.353 73.18L311.927 74.118C314.419 72.284 316.183 69.946 317.219 67.104H317.317V72.564H314.433V73.53H317.317V76.4H318.353V73.53H321.349V72.564H318.353V67.104H318.465C319.417 69.638 321.125 71.92 323.589 73.936L324.275 73.068C321.867 71.318 320.187 69.33 319.249 67.104H323.813V66.138H318.353V63.604H317.317V66.138H311.843ZM331.297 66.656H336.379C336.099 67.748 335.749 68.728 335.315 69.596L336.309 69.876C336.785 68.714 337.163 67.538 337.457 66.348V65.69H331.577C331.731 65.074 331.857 64.402 331.969 63.674L330.961 63.52C330.625 65.956 329.883 67.874 328.735 69.246L329.575 69.834C330.289 69.022 330.863 67.958 331.297 66.656ZM332.739 67.608C332.711 69.428 332.473 70.94 332.025 72.13C331.395 73.53 330.135 74.706 328.231 75.63L328.889 76.428C331.045 75.364 332.417 73.992 333.019 72.312C333.131 72.004 333.229 71.682 333.313 71.332C334.209 73.348 335.553 75.028 337.373 76.4L338.031 75.63C335.917 74.174 334.447 72.2 333.607 69.708C333.677 69.064 333.719 68.364 333.719 67.608H332.739ZM326.047 64.164L325.235 64.668C326.299 65.732 327.153 66.712 327.783 67.58L328.567 67.02C327.979 66.208 327.139 65.256 326.047 64.164ZM327.755 70.17C326.999 71.99 326.117 73.782 325.081 75.532L326.019 75.952C326.985 74.258 327.853 72.438 328.637 70.506L327.755 70.17ZM344.745 63.604V65.704H340.251V73.628H341.245V72.676H344.745V76.344H345.781V72.676H349.225V73.53H350.219V65.704H345.781V63.604H344.745ZM341.245 71.724V69.624H344.745V71.724H341.245ZM345.781 71.724V69.624H349.225V71.724H345.781ZM341.245 68.714V66.642H344.745V68.714H341.245ZM345.781 68.714V66.642H349.225V68.714H345.781ZM360.531 63.562V64.472H357.143V65.298H360.531V66.236H357.703V67.048H360.531V68H356.751V68.84H365.319V68H361.497V67.048H364.465V66.236H361.497V65.298H364.969V64.472H361.497V63.562H360.531ZM358.781 72.368H363.303V73.39H358.781V72.368ZM363.303 71.584H358.781V70.548H363.303V71.584ZM358.781 74.174H363.303V74.972C363.303 75.294 363.121 75.462 362.785 75.462L361.665 75.42L361.903 76.316H363.079C363.863 76.316 364.269 75.938 364.269 75.182V69.722H357.815V76.4H358.781V74.174ZM354.217 63.716L353.503 64.402C354.511 65.158 355.309 65.872 355.897 66.544L356.583 65.844C355.939 65.13 355.155 64.416 354.217 63.716ZM352.523 67.846V68.812H354.525V74.37C354.525 74.608 354.413 74.818 354.203 75.014L354.595 75.91C355.463 75.28 356.303 74.552 357.087 73.74L356.821 72.676C356.345 73.166 355.911 73.6 355.491 73.992V67.846H352.523ZM366.797 64.444V65.326H369.653V66.334H367.147V67.16H369.625C369.597 67.496 369.541 67.832 369.471 68.154H366.503V69.036H369.149C369.093 69.12 369.051 69.19 369.009 69.274C368.575 69.876 367.805 70.352 366.713 70.716L367.231 71.528C368.407 71.136 369.261 70.576 369.793 69.876C369.961 69.624 370.115 69.344 370.241 69.036H373.027V68.154H370.493C370.563 67.846 370.605 67.524 370.633 67.16H372.691V66.334H370.647V65.326H373.027V64.444H370.647V63.59H369.653V64.444H366.797ZM372.257 70.408V71.682H367.987V75.672H368.995V72.62H372.257V76.526H373.265V72.62H376.583V74.258C376.583 74.524 376.415 74.664 376.093 74.664L374.973 74.636L375.225 75.574H376.415C377.185 75.574 377.577 75.21 377.577 74.482V71.682H373.265V70.408H372.257ZM373.881 64.122V70.772H374.889V65.06H377.297C376.961 65.732 376.541 66.362 376.051 66.95C377.003 67.776 377.493 68.378 377.493 68.756C377.493 69.176 377.101 69.386 376.317 69.4C376.093 69.4 375.841 69.372 375.533 69.344L375.897 70.296C376.513 70.296 377.003 70.24 377.367 70.142C378.123 69.974 378.515 69.512 378.529 68.756C378.529 68.224 378.081 67.622 377.199 66.95C377.675 66.278 378.095 65.564 378.445 64.822V64.122H373.881ZM384.319 69.078C383.843 69.372 383.353 69.638 382.849 69.89V67.104H384.375V66.138H382.849V63.59H381.813V66.138H379.993V67.104H381.813V70.338C381.169 70.604 380.497 70.828 379.811 71.01L380.063 71.962C380.651 71.766 381.239 71.542 381.813 71.318V74.72C381.813 75.14 381.617 75.35 381.225 75.35C380.917 75.35 380.595 75.322 380.259 75.294L380.469 76.274H381.575C382.415 76.274 382.849 75.84 382.849 74.972V70.856C383.353 70.618 383.843 70.366 384.319 70.086V69.078ZM385.271 65.858V66.838H387.973V68.658C387.973 68.98 387.945 69.302 387.917 69.624H384.837V70.604H387.749C387.287 72.536 386.111 74.216 384.221 75.658L385.005 76.316C386.797 74.888 387.987 73.222 388.575 71.332C389.359 73.32 390.535 74.986 392.131 76.33L392.803 75.546C391.207 74.286 390.017 72.648 389.261 70.604H392.523V69.624H388.939C388.967 69.316 388.995 68.994 388.995 68.658V66.838H391.921V65.858H388.995V63.604H387.973V65.858H385.271ZM22.352 86.096V88.826H26.496V89.694H21.89V90.506H26.496V91.584H20.63V92.41H26.496V93.432H21.89V94.244H26.496V94.93C26.496 95.28 26.3 95.462 25.922 95.462C25.418 95.462 24.886 95.434 24.326 95.392L24.536 96.344H26.258C27.084 96.344 27.504 95.952 27.504 95.168V94.244H31.844V92.41H33.37V91.584H31.844V89.694H27.504V88.826H31.648V86.096H27.504V85.228H32.992V84.36H27.504V83.52H26.496V84.36H21.008V85.228H26.496V86.096H22.352ZM30.64 88.056H27.504V86.866H30.64V88.056ZM26.496 88.056H23.36V86.866H26.496V88.056ZM27.504 90.506H30.878V91.584H27.504V90.506ZM30.878 92.41V93.432H27.504V92.41H30.878ZM34.764 84.836V85.802H40.014C39.944 86.18 39.86 86.572 39.776 86.964H36.5V95.14H34.498V96.078H46.916V95.14H44.844V86.964H40.812C40.896 86.6 40.98 86.208 41.05 85.802H46.636V84.836H41.204C41.26 84.458 41.302 84.066 41.344 83.66L40.322 83.52C40.28 83.954 40.224 84.388 40.168 84.836H34.764ZM37.494 95.14V93.908H43.85V95.14H37.494ZM37.494 93.082V91.892H43.85V93.082H37.494ZM37.494 91.08V89.904H43.85V91.08H37.494ZM37.494 89.078V87.86H43.85V89.078H37.494ZM48.73 84.584V85.466H53.924C53.868 85.774 53.798 86.082 53.728 86.39H50.284V92.984H48.212V93.894H52.328C51.348 94.594 50.088 95.154 48.548 95.588L48.968 96.442C50.564 95.952 51.88 95.322 52.944 94.566L52.356 93.894H56.36L55.912 94.566C57.27 95.014 58.586 95.644 59.874 96.456L60.392 95.658C59.202 94.972 57.872 94.384 56.416 93.894H60.588V92.984H58.74V86.39H54.75C54.82 86.082 54.89 85.774 54.946 85.466H60.07V84.584H55.1C55.142 84.276 55.184 83.968 55.212 83.66L54.19 83.52L54.064 84.584H48.73ZM51.25 92.984V92.088H57.774V92.984H51.25ZM51.25 91.318V90.464H57.774V91.318H51.25ZM51.25 89.708V88.854H57.774V89.708H51.25ZM51.25 88.084V87.202H57.774V88.084H51.25ZM68.17 93.6C70.046 94.328 71.866 95.28 73.658 96.484L74.204 95.616C72.552 94.552 70.718 93.642 68.73 92.858C68.856 92.662 68.982 92.452 69.108 92.228H74.022V91.276H69.528C69.836 90.408 70.004 89.414 70.046 88.308V86.656H69.066V88.308C69.024 89.414 68.828 90.408 68.464 91.276H62.192V92.228H67.974C67.834 92.452 67.694 92.662 67.526 92.858C66.49 93.978 64.67 94.888 62.066 95.56L62.626 96.414C65.188 95.742 67.036 94.804 68.17 93.6ZM64.054 88.574L63.55 89.33C64.502 89.708 65.44 90.24 66.336 90.912L66.854 90.114C66.014 89.526 65.076 89.008 64.054 88.574ZM65.314 86.572L64.796 87.328C65.776 87.72 66.742 88.266 67.68 88.966L68.198 88.168C67.33 87.538 66.364 87.006 65.314 86.572ZM73.784 84.934H68.716C68.534 84.388 68.352 83.898 68.17 83.478L67.134 83.646C67.344 84.038 67.54 84.458 67.708 84.934H62.388V87.622H63.368V85.872H72.804V87.622H73.784V84.934ZM78.3 93.012C77.796 93.012 77.362 93.18 77.012 93.516C76.648 93.852 76.48 94.272 76.48 94.776C76.48 95.28 76.648 95.7 77.012 96.036C77.362 96.358 77.796 96.526 78.3 96.526C78.804 96.526 79.224 96.358 79.588 96.022C79.938 95.686 80.12 95.266 80.12 94.776C80.12 94.272 79.938 93.852 79.588 93.516C79.224 93.18 78.804 93.012 78.3 93.012ZM78.3 93.74C78.58 93.74 78.832 93.838 79.042 94.048C79.252 94.244 79.364 94.482 79.364 94.776C79.364 95.056 79.252 95.294 79.042 95.49C78.832 95.686 78.58 95.798 78.3 95.798C78.006 95.798 77.754 95.686 77.558 95.49C77.334 95.294 77.236 95.056 77.236 94.776C77.236 94.482 77.334 94.244 77.558 94.048C77.754 93.838 78.006 93.74 78.3 93.74ZM101.38 84.094H90.124V89.54C90.096 92.13 89.746 94.16 89.074 95.63L89.83 96.302C90.656 94.608 91.09 92.354 91.146 89.54V84.962H95.822C95.738 85.27 95.626 85.578 95.486 85.886H92.7V89.848H96.186V90.94C96.186 91.276 96.018 91.444 95.696 91.444C95.388 91.444 95.052 91.416 94.716 91.374L94.912 92.242H96.004C96.774 92.242 97.166 91.878 97.166 91.164V89.848H100.358V85.886H96.508C96.634 85.592 96.746 85.284 96.83 84.962H101.38V84.094ZM99.392 89.092H93.68V88.168H99.392V89.092ZM93.68 87.496V86.6H99.392V87.496H93.68ZM97.74 96.26C98.188 96.26 98.51 96.162 98.706 95.994C98.944 95.77 99.098 95.168 99.182 94.216L98.272 93.922C98.23 94.622 98.146 95.042 98.02 95.182C97.936 95.294 97.782 95.35 97.558 95.35H95.276C94.912 95.35 94.744 95.21 94.744 94.958V92.83H93.764V95.14C93.764 95.882 94.17 96.26 94.996 96.26H97.74ZM92.322 92.942C91.902 93.964 91.398 94.846 90.81 95.574L91.608 96.148C92.196 95.364 92.714 94.426 93.162 93.348L92.322 92.942ZM96.312 92.634L95.626 93.068C96.186 93.74 96.62 94.342 96.928 94.902L97.642 94.412C97.334 93.894 96.886 93.306 96.312 92.634ZM99.714 92.606L98.93 93.096C99.798 94.146 100.47 95.112 100.974 95.98L101.786 95.406C101.296 94.608 100.61 93.67 99.714 92.606ZM93.876 90.17C93.204 90.758 92.392 91.262 91.426 91.71L92.014 92.48C92.994 91.976 93.834 91.388 94.506 90.73L93.876 90.17ZM98.524 90.212L98.048 90.926C99.042 91.318 100.008 91.85 100.96 92.536L101.506 91.696C100.61 91.108 99.616 90.618 98.524 90.212ZM106.036 85.284L106.484 86.39H103.124V87.272H115.276V86.39H111.79L112.336 85.284H114.618V84.416H109.69C109.55 84.052 109.396 83.73 109.256 83.436L108.178 83.604C108.318 83.842 108.458 84.108 108.584 84.416H103.782V85.284H106.036ZM107.534 86.39L107.086 85.284H111.286L110.74 86.39H107.534ZM104.72 88.098V92.242H113.68V88.098H104.72ZM112.7 91.458H105.7V90.534H112.7V91.458ZM105.7 89.792V88.896H112.7V89.792H105.7ZM104.16 92.9C103.894 93.824 103.474 94.678 102.9 95.448L103.768 95.994C104.356 95.182 104.804 94.216 105.14 93.096L104.16 92.9ZM111.118 96.176C111.65 96.176 112.028 96.078 112.28 95.91C112.56 95.686 112.756 95.098 112.854 94.132L111.902 93.824C111.846 94.524 111.734 94.958 111.566 95.098C111.454 95.21 111.244 95.266 110.936 95.266H107.996C107.548 95.266 107.324 95.056 107.324 94.664V93.026H106.288V94.874C106.288 95.742 106.75 96.176 107.702 96.176H111.118ZM109.354 92.508L108.5 93.04C109.088 93.628 109.536 94.174 109.872 94.678L110.712 94.09C110.404 93.628 109.942 93.096 109.354 92.508ZM113.75 92.774L112.938 93.278C113.694 94.202 114.282 95.042 114.73 95.812L115.57 95.224C115.15 94.524 114.534 93.712 113.75 92.774ZM123.306 85.928L122.48 86.32C122.774 86.824 123.054 87.384 123.334 88H121.192V88.966H129.004V88H126.736C127.058 87.44 127.352 86.81 127.618 86.11L126.666 85.774C126.386 86.558 126.064 87.3 125.672 88H124.3C123.992 87.244 123.67 86.558 123.306 85.928ZM125.154 83.478L124.104 83.646C124.272 83.996 124.44 84.388 124.594 84.808H121.514V85.732H128.752V84.808H125.616C125.462 84.318 125.308 83.87 125.154 83.478ZM118.168 96.274C118.994 96.274 119.414 95.868 119.414 95.056V90.912C119.806 90.73 120.198 90.534 120.59 90.324V89.302C120.198 89.512 119.806 89.708 119.414 89.904V87.216H120.576V86.25H119.414V83.604H118.378V86.25H116.67V87.216H118.378V90.338C117.734 90.59 117.076 90.8 116.418 90.968L116.67 91.976C117.244 91.794 117.818 91.584 118.378 91.36V94.804C118.378 95.168 118.182 95.35 117.818 95.35C117.482 95.35 117.118 95.322 116.74 95.294L116.95 96.274H118.168ZM123.922 89.358C123.768 89.75 123.6 90.142 123.404 90.562H121.01V91.542H122.886C122.592 92.074 122.256 92.62 121.878 93.194C122.858 93.586 123.768 93.964 124.622 94.356C123.754 94.86 122.494 95.252 120.87 95.546L121.262 96.456C123.278 96.064 124.748 95.518 125.672 94.846C126.792 95.378 127.758 95.896 128.598 96.414L129.144 95.602C128.262 95.098 127.338 94.622 126.386 94.174C127.044 93.46 127.478 92.578 127.688 91.542H129.228V90.562H124.426C124.594 90.212 124.748 89.848 124.888 89.47L123.922 89.358ZM126.736 91.542C126.512 92.438 126.092 93.166 125.462 93.754C124.706 93.418 123.922 93.096 123.11 92.788C123.39 92.396 123.656 91.976 123.908 91.542H126.736ZM141.598 83.674C138.784 84.066 135.242 84.262 130.972 84.262L131.266 85.172C135.76 85.172 139.372 84.948 142.088 84.528L141.598 83.674ZM142.452 87.874H139.792C140.254 87.272 140.702 86.53 141.15 85.634L140.142 85.256C139.75 86.18 139.274 87.062 138.714 87.874H130.748V91.066H131.728V88.826H141.472V91.066H142.452V87.874ZM132.722 85.522L131.84 85.97C132.33 86.516 132.792 87.146 133.226 87.846L134.094 87.412C133.674 86.726 133.212 86.096 132.722 85.522ZM136.054 85.368L135.144 85.802C135.62 86.362 136.054 87.006 136.474 87.734L137.37 87.272C136.95 86.572 136.502 85.942 136.054 85.368ZM132.456 90.198V91.122H133.016C133.562 92.2 134.472 93.152 135.746 93.964C134.304 94.594 132.526 95.098 130.412 95.49L130.944 96.442C133.254 95.966 135.186 95.336 136.754 94.552C138.21 95.308 140.044 95.938 142.256 96.428L142.844 95.532C140.842 95.126 139.148 94.608 137.762 93.978C139.078 93.166 140.044 92.186 140.66 91.066V90.198H132.456ZM134.052 91.122H139.54C138.896 92.018 137.972 92.802 136.74 93.474C135.522 92.802 134.626 92.018 134.052 91.122ZM148.2 88.602H153.758V90.128H148.2V88.602ZM153.758 91.01V92.494H148.2V91.01H153.758ZM153.758 93.376V94.972C153.758 95.308 153.576 95.476 153.212 95.476C152.75 95.476 152.246 95.448 151.714 95.42L151.966 96.344H153.534C154.318 96.316 154.71 95.966 154.71 95.28V87.72H148.214C148.55 87.202 148.844 86.656 149.124 86.096H156.502V85.116H149.544C149.74 84.626 149.908 84.122 150.076 83.604L149.054 83.478C148.886 84.024 148.676 84.57 148.438 85.116H144.266V86.096H147.976C147.01 87.902 145.652 89.498 143.888 90.898L144.546 91.752C145.554 90.94 146.464 90.03 147.248 89.05V96.372H148.2V93.376H153.758ZM161.34 83.618L160.416 84.066C160.99 84.766 161.522 85.564 162.026 86.46L162.936 85.998C162.432 85.13 161.9 84.346 161.34 83.618ZM166.604 83.492C166.184 84.668 165.722 85.662 165.19 86.474H158.792V87.454H163.482V88.112C163.468 88.798 163.398 89.442 163.272 90.058H157.994V91.038H163.02C162.824 91.654 162.558 92.2 162.222 92.704C161.382 93.824 159.884 94.734 157.742 95.42L158.288 96.302C160.444 95.616 161.998 94.65 162.95 93.418C163.398 92.816 163.748 92.116 164.014 91.318C164.77 93.446 166.674 95.14 169.754 96.386L170.342 95.448C167.402 94.398 165.596 92.928 164.91 91.038H170.006V90.058H164.322C164.434 89.47 164.49 88.812 164.518 88.112V87.454H169.194V86.474H166.31C166.814 85.676 167.234 84.766 167.57 83.758L166.604 83.492ZM173.332 86.418L172.408 86.754C172.758 87.37 173.052 88.042 173.304 88.77H171.414V89.75H178.428V88.77H176.734C177.098 88.14 177.42 87.426 177.714 86.628L176.776 86.306C176.496 87.174 176.146 88 175.74 88.77H174.27C173.99 87.846 173.668 87.062 173.332 86.418ZM179.072 84.15V96.372H180.052V85.074H182.558C182.11 86.586 181.648 87.902 181.186 89.008C182.278 90.352 182.838 91.43 182.852 92.256C182.838 92.76 182.768 93.096 182.628 93.278C182.488 93.446 182.166 93.544 181.662 93.572C181.396 93.572 181.074 93.544 180.682 93.516L181.004 94.58C182.152 94.58 182.922 94.398 183.314 94.062C183.678 93.726 183.86 93.124 183.86 92.256C183.846 91.416 183.314 90.324 182.264 89.008C182.768 87.748 183.23 86.376 183.664 84.906V84.15H179.072ZM171.68 84.92V85.9H178.33V84.92H175.474C175.32 84.388 175.166 83.898 175.012 83.478L173.976 83.66C174.158 84.038 174.326 84.458 174.494 84.92H171.68ZM177.784 91.024H172.212V96.302H173.206V95.518H176.79V96.302H177.784V91.024ZM173.206 94.566V91.976H176.79V94.566H173.206ZM195.6 96.288C196.524 96.288 196.986 95.812 196.986 94.86V84.29H190.63V85.214H196.006V94.58C196.006 95.112 195.796 95.378 195.39 95.378L194.144 95.35L194.396 96.288H195.6ZM185.786 85.886V96.414H186.766V85.886H185.786ZM187.816 83.436L186.892 83.842C187.536 84.598 188.11 85.466 188.642 86.446L189.552 85.97C189.048 85.046 188.46 84.206 187.816 83.436ZM205.436 90.38H207.242V92.172H205.422C205.422 92.046 205.436 91.92 205.436 91.808V90.38ZM205.352 93.054H207.242V96.148H208.152V93.054H210.028V94.93C210.028 95.21 209.888 95.364 209.608 95.364C209.3 95.364 208.978 95.336 208.628 95.308L208.866 96.218H209.902C210.616 96.218 210.98 95.896 210.98 95.266V86.88H208.628C209.048 86.46 209.468 85.928 209.888 85.312V84.598H206.514C206.654 84.318 206.808 84.038 206.948 83.744L205.982 83.534C205.268 84.99 204.358 86.18 203.252 87.09L203.882 87.832C204.078 87.664 204.288 87.468 204.498 87.272V91.864C204.47 93.404 204.12 94.692 203.42 95.7L204.148 96.358C204.792 95.462 205.184 94.37 205.352 93.054ZM207.536 86.88H204.876C205.268 86.446 205.646 85.97 205.996 85.452H208.726C208.334 85.984 207.942 86.46 207.536 86.88ZM210.028 92.172H208.152V90.38H210.028V92.172ZM210.028 89.484H208.152V87.776H210.028V89.484ZM207.242 87.776V89.484H205.436V87.776H207.242ZM199.038 84.346V85.326H200.62C200.298 87.356 199.64 89.162 198.632 90.744L199.22 91.682C199.472 91.29 199.724 90.884 199.962 90.45V95.938H200.914V94.874H203.364V88.504H200.816C201.152 87.524 201.418 86.46 201.6 85.326H203.714V84.346H199.038ZM200.914 93.964V89.428H202.44V93.964H200.914ZM220.578 83.632C220.578 86.348 220.368 88.574 219.976 90.324C219.444 92.41 218.352 94.132 216.728 95.504L217.414 96.33C219.276 94.79 220.466 92.802 220.998 90.394C221.068 90.03 221.138 89.666 221.208 89.274C221.992 92.046 223.126 94.398 224.624 96.302L225.352 95.462C223.518 93.362 222.23 90.506 221.488 86.922C221.572 85.914 221.614 84.808 221.614 83.632H220.578ZM214.068 83.702L213.368 84.388C214.376 85.144 215.188 85.872 215.776 86.558L216.462 85.858C215.818 85.13 215.02 84.416 214.068 83.702ZM212.43 87.846V88.812H214.488V94.272C214.488 94.496 214.376 94.706 214.166 94.874L214.558 95.77C215.538 95.126 216.462 94.384 217.33 93.558L217.078 92.522C216.504 93.068 215.958 93.544 215.454 93.964V87.846H212.43ZM229.154 89.274C229.574 89.876 230.064 90.674 230.638 91.654L231.198 90.8C230.498 89.82 229.826 88.952 229.154 88.182V87.272H230.806V86.306H229.154V83.576H228.188V86.306H226.256V87.272H228.146C227.726 89.12 227.012 90.772 226.018 92.228L226.438 93.25C227.152 92.102 227.74 90.814 228.188 89.386V96.4H229.154V89.274ZM231.156 85.102V86.012H233.872C232.976 87.538 232.262 88.476 231.702 88.84C231.646 88.868 231.59 88.896 231.506 88.924L231.716 89.75C232.822 89.708 233.872 89.652 234.852 89.596C233.704 90.884 232.29 91.822 230.596 92.424L231.142 93.264C233.858 92.256 235.902 90.352 237.302 87.58L236.49 87.146C236.21 87.706 235.888 88.224 235.524 88.728C234.656 88.798 233.774 88.854 232.878 88.91C233.466 88.336 234.138 87.37 234.908 86.012H238.744V85.102H235.636C235.44 84.514 235.23 83.996 235.02 83.548L233.984 83.716C234.236 84.136 234.46 84.598 234.656 85.102H231.156ZM235.636 93.558C236.672 94.538 237.498 95.462 238.114 96.33L238.842 95.602C238.142 94.72 237.274 93.838 236.266 92.942C237.176 92.018 237.974 90.926 238.646 89.666L237.792 89.218C236.154 92.284 233.69 94.356 230.4 95.434L230.946 96.302C232.738 95.686 234.292 94.762 235.636 93.558ZM246.27 93.6C248.146 94.328 249.966 95.28 251.758 96.484L252.304 95.616C250.652 94.552 248.818 93.642 246.83 92.858C246.956 92.662 247.082 92.452 247.208 92.228H252.122V91.276H247.628C247.936 90.408 248.104 89.414 248.146 88.308V86.656H247.166V88.308C247.124 89.414 246.928 90.408 246.564 91.276H240.292V92.228H246.074C245.934 92.452 245.794 92.662 245.626 92.858C244.59 93.978 242.77 94.888 240.166 95.56L240.726 96.414C243.288 95.742 245.136 94.804 246.27 93.6ZM242.154 88.574L241.65 89.33C242.602 89.708 243.54 90.24 244.436 90.912L244.954 90.114C244.114 89.526 243.176 89.008 242.154 88.574ZM243.414 86.572L242.896 87.328C243.876 87.72 244.842 88.266 245.78 88.966L246.298 88.168C245.43 87.538 244.464 87.006 243.414 86.572ZM251.884 84.934H246.816C246.634 84.388 246.452 83.898 246.27 83.478L245.234 83.646C245.444 84.038 245.64 84.458 245.808 84.934H240.488V87.622H241.468V85.872H250.904V87.622H251.884V84.934ZM256.4 93.012C255.896 93.012 255.462 93.18 255.112 93.516C254.748 93.852 254.58 94.272 254.58 94.776C254.58 95.28 254.748 95.7 255.112 96.036C255.462 96.358 255.896 96.526 256.4 96.526C256.904 96.526 257.324 96.358 257.688 96.022C258.038 95.686 258.22 95.266 258.22 94.776C258.22 94.272 258.038 93.852 257.688 93.516C257.324 93.18 256.904 93.012 256.4 93.012ZM256.4 93.74C256.68 93.74 256.932 93.838 257.142 94.048C257.352 94.244 257.464 94.482 257.464 94.776C257.464 95.056 257.352 95.294 257.142 95.49C256.932 95.686 256.68 95.798 256.4 95.798C256.106 95.798 255.854 95.686 255.658 95.49C255.434 95.294 255.336 95.056 255.336 94.776C255.336 94.482 255.434 94.244 255.658 94.048C255.854 93.838 256.106 93.74 256.4 93.74ZM279.186 84.822H274.356V95.784H275.336V94.93H278.206V95.784H279.186V84.822ZM275.336 93.95V85.802H278.206V93.95H275.336ZM269.68 83.52C269.54 84.402 269.372 85.27 269.204 86.11H267.356V87.09H268.994C268.658 88.532 268.28 89.862 267.846 91.094C268.714 91.71 269.512 92.312 270.24 92.872C269.512 93.894 268.588 94.776 267.44 95.518L268.112 96.344C269.274 95.546 270.24 94.594 271.01 93.488C271.766 94.09 272.41 94.65 272.942 95.168L273.628 94.356C273.082 93.852 272.382 93.278 271.542 92.634C272.48 90.968 273.012 88.994 273.152 86.698V86.11H270.24C270.394 85.34 270.548 84.5 270.702 83.604L269.68 83.52ZM270.758 92.046C270.212 91.654 269.61 91.234 268.966 90.8C269.33 89.82 269.694 88.574 270.03 87.09H272.2C272.046 88.952 271.57 90.604 270.758 92.046ZM281.378 84.99V85.97H284.78C283.87 87.944 282.568 89.68 280.86 91.178L281.49 91.976C282.022 91.5 282.512 91.01 282.988 90.492V96.414H283.968V89.288C284.724 88.28 285.368 87.174 285.886 85.97H293.432V84.99H286.264C286.418 84.542 286.558 84.094 286.698 83.632L285.676 83.506C285.536 84.01 285.368 84.5 285.186 84.99H281.378ZM285.06 91.5V92.466H289.12V94.79C289.12 95.21 288.896 95.434 288.476 95.434C287.902 95.434 287.37 95.42 286.866 95.406L287.132 96.358H288.882C289.708 96.358 290.128 95.938 290.128 95.112V92.466H293.628V91.5H290.128V90.618C291.08 89.988 291.934 89.316 292.69 88.616V87.678H286.138V88.616H291.402C290.674 89.232 289.918 89.75 289.12 90.198V91.5H285.06ZM299.026 90.086V91.066H302.232V94.93H298.452V95.924H307.23V94.93H303.254V91.066H306.6V90.086H303.254V87.482H302.232V90.086H299.026ZM296.772 90.702V96.442H297.766V89.554C298.522 88.602 299.18 87.566 299.726 86.46H307.216V85.466H300.174C300.426 84.864 300.636 84.234 300.832 83.59L299.782 83.464C299.586 84.15 299.334 84.822 299.054 85.466H294.98V86.46H298.578C297.598 88.322 296.24 89.974 294.49 91.416L295.12 92.242C295.708 91.752 296.254 91.234 296.772 90.702ZM318.158 90.814C318.718 90.814 319.124 90.73 319.376 90.576C319.67 90.38 319.866 89.876 319.964 89.05L319.054 88.756C318.984 89.344 318.858 89.708 318.69 89.834C318.55 89.918 318.312 89.974 317.976 89.974H314.938C314.574 89.974 314.392 89.764 314.392 89.372V89.008L318.326 88.574L318.2 87.734L314.392 88.154V86.936H319.46C319.292 87.426 319.11 87.874 318.886 88.294L319.852 88.56C320.16 87.888 320.384 87.202 320.538 86.502V86.04H314.938V85.158H319.488V84.318H314.938V83.478H313.916V86.04H309.45V90.59C309.422 92.69 309.03 94.412 308.302 95.77L309.1 96.484C309.996 94.832 310.444 92.858 310.444 90.562V86.936H313.398V88.266L311.018 88.532L311.144 89.372L313.398 89.12V89.596C313.398 90.408 313.818 90.814 314.686 90.814H318.158ZM313.916 91.318V95.238H310.472V96.162H320.832V95.238H317.416V91.332H316.436V95.238H314.882V91.318H313.916ZM319.516 91.486C319.124 92.41 318.606 93.334 317.948 94.272L318.788 94.706C319.432 93.782 319.95 92.844 320.356 91.878L319.516 91.486ZM311.928 91.472L311.074 91.808C311.55 92.634 311.984 93.6 312.39 94.692L313.244 94.328C312.88 93.32 312.432 92.368 311.928 91.472ZM326.818 89.19C326.286 89.47 325.754 89.722 325.208 89.96V87.104H326.776V86.138H325.208V83.604H324.214V86.138H322.184V87.104H324.214V90.352C323.486 90.604 322.744 90.828 321.974 91.01L322.226 92.004C322.898 91.794 323.57 91.57 324.214 91.332V94.86C324.214 95.252 324.018 95.462 323.64 95.462C323.262 95.462 322.87 95.434 322.464 95.392L322.688 96.358H323.99C324.802 96.358 325.208 95.938 325.208 95.098V90.926C325.754 90.702 326.286 90.45 326.818 90.184V89.19ZM328.54 90.072H329.352C329.576 91.416 330.164 92.662 331.13 93.81C330.514 94.51 329.758 95.084 328.862 95.532L329.352 96.414C330.304 95.938 331.13 95.308 331.802 94.538C332.446 95.182 333.244 95.784 334.168 96.372L334.84 95.602C333.86 95.056 333.034 94.468 332.362 93.824C333.09 92.774 333.58 91.5 333.86 90.016V89.148H328.54V85.06H332.768C332.74 85.928 332.684 86.502 332.586 86.768C332.488 86.936 332.362 87.034 332.208 87.09C332.04 87.118 331.774 87.146 331.438 87.146C331.102 87.146 330.836 87.132 330.612 87.132L330.892 88.014H331.9C332.796 88.014 333.328 87.748 333.496 87.244C333.65 86.726 333.734 85.69 333.734 84.136H327.588V96.4H328.54V90.072ZM330.262 90.072H332.894C332.642 91.22 332.236 92.228 331.676 93.082C330.92 92.172 330.458 91.164 330.262 90.072ZM337.522 93.04L336.892 93.628C337.41 94.02 337.928 94.482 338.446 95.042C338.894 95.518 339.3 95.994 339.636 96.47L340.336 95.882C340 95.406 339.594 94.916 339.132 94.44C338.6 93.88 338.054 93.418 337.522 93.04ZM351.236 88.28V96.428H352.244V86.544C352.65 85.732 353 84.864 353.28 83.968L352.37 83.548C351.726 85.704 350.704 87.622 349.29 89.302L349.612 90.352C350.2 89.708 350.746 89.008 351.236 88.28ZM354.4 83.884L353.644 84.416C354.26 85.144 354.764 85.83 355.156 86.474L355.926 85.942C355.562 85.354 355.044 84.668 354.4 83.884ZM357.788 89.876L357.186 90.24C357.312 89.568 357.41 88.84 357.494 88.042H360.504C360.49 91.43 360.434 93.446 360.336 94.09C360.21 94.902 359.748 95.308 358.95 95.308C358.614 95.308 358.208 95.294 357.732 95.266L357.97 96.162C358.488 96.19 358.852 96.204 359.076 96.204C360.392 96.204 361.134 95.63 361.288 94.482C361.428 93.544 361.498 91.066 361.498 87.062H357.578C357.606 86.53 357.62 85.956 357.634 85.368V83.562H356.668V85.368C356.654 85.956 356.626 86.516 356.598 87.062H353.588V88.042H356.514C356.374 89.442 356.15 90.66 355.814 91.696C355.254 93.25 354.26 94.496 352.832 95.434L353.378 96.274C354.862 95.35 355.926 94.076 356.57 92.438C356.794 91.864 356.976 91.22 357.13 90.492C357.858 91.444 358.446 92.326 358.894 93.138L359.692 92.592C359.244 91.808 358.614 90.912 357.788 89.876ZM364.278 83.674L363.592 84.318C364.6 85.158 365.384 85.956 365.958 86.684L366.658 85.984C366.014 85.214 365.23 84.444 364.278 83.674ZM372.398 96.148H375.66L375.912 95.14C375.534 95.168 375.002 95.182 374.316 95.196C373.616 95.21 372.93 95.224 372.258 95.224C371.166 95.224 370.242 95.21 369.514 95.196C368.674 95.168 368.044 95.056 367.61 94.86C367.218 94.678 366.854 94.384 366.518 93.978C366.406 93.852 366.294 93.74 366.182 93.656V88.42H363.256V89.344H365.244V93.6C364.656 93.852 363.998 94.58 363.242 95.77L363.998 96.456C364.782 95.14 365.342 94.496 365.692 94.496C365.86 94.496 366.042 94.608 366.238 94.846C366.672 95.35 367.162 95.7 367.708 95.868C368.268 96.022 369.01 96.106 369.906 96.12C370.802 96.134 371.642 96.148 372.398 96.148ZM369.01 86.194H371.166V88.014H367.162V88.938H375.73V88.014H372.132V86.194H375.002V85.256H372.132V83.576H371.166V85.256H369.388C369.528 84.878 369.654 84.486 369.766 84.066L368.856 83.87C368.548 85.046 368.044 86.124 367.372 87.09L368.212 87.608C368.506 87.174 368.772 86.698 369.01 86.194ZM368.366 90.058V93.992H374.638V90.058H368.366ZM373.658 93.054H369.346V90.996H373.658V93.054ZM382.71 83.604V85.704H378.216V93.628H379.21V92.676H382.71V96.344H383.746V92.676H387.19V93.53H388.184V85.704H383.746V83.604H382.71ZM379.21 91.724V89.624H382.71V91.724H379.21ZM383.746 91.724V89.624H387.19V91.724H383.746ZM379.21 88.714V86.642H382.71V88.714H379.21ZM383.746 88.714V86.642H387.19V88.714H383.746ZM28.596 103.562V104.472H25.208V105.298H28.596V106.236H25.768V107.048H28.596V108H24.816V108.84H33.384V108H29.562V107.048H32.53V106.236H29.562V105.298H33.034V104.472H29.562V103.562H28.596ZM26.846 112.368H31.368V113.39H26.846V112.368ZM31.368 111.584H26.846V110.548H31.368V111.584ZM26.846 114.174H31.368V114.972C31.368 115.294 31.186 115.462 30.85 115.462L29.73 115.42L29.968 116.316H31.144C31.928 116.316 32.334 115.938 32.334 115.182V109.722H25.88V116.4H26.846V114.174ZM22.282 103.716L21.568 104.402C22.576 105.158 23.374 105.872 23.962 106.544L24.648 105.844C24.004 105.13 23.22 104.416 22.282 103.716ZM20.588 107.846V108.812H22.59V114.37C22.59 114.608 22.478 114.818 22.268 115.014L22.66 115.91C23.528 115.28 24.368 114.552 25.152 113.74L24.886 112.676C24.41 113.166 23.976 113.6 23.556 113.992V107.846H20.588ZM36.304 113.334C36.024 113.334 35.814 113.404 35.646 113.572C35.478 113.726 35.394 113.936 35.394 114.202C35.394 114.44 35.478 114.65 35.646 114.818C35.814 114.986 36.01 115.07 36.248 115.07C36.388 115.07 36.5 115.042 36.556 115.014C36.556 115.35 36.458 115.658 36.248 115.952C36.024 116.232 35.73 116.442 35.366 116.568V117.254C35.954 117.1 36.444 116.792 36.808 116.344C37.172 115.868 37.354 115.322 37.354 114.706C37.354 114.3 37.256 113.978 37.074 113.726C36.878 113.46 36.612 113.334 36.304 113.334ZM49.178 103.674L48.492 104.318C49.5 105.158 50.284 105.956 50.858 106.684L51.558 105.984C50.914 105.214 50.13 104.444 49.178 103.674ZM57.298 116.148H60.56L60.812 115.14C60.434 115.168 59.902 115.182 59.216 115.196C58.516 115.21 57.83 115.224 57.158 115.224C56.066 115.224 55.142 115.21 54.414 115.196C53.574 115.168 52.944 115.056 52.51 114.86C52.118 114.678 51.754 114.384 51.418 113.978C51.306 113.852 51.194 113.74 51.082 113.656V108.42H48.156V109.344H50.144V113.6C49.556 113.852 48.898 114.58 48.142 115.77L48.898 116.456C49.682 115.14 50.242 114.496 50.592 114.496C50.76 114.496 50.942 114.608 51.138 114.846C51.572 115.35 52.062 115.7 52.608 115.868C53.168 116.022 53.91 116.106 54.806 116.12C55.702 116.134 56.542 116.148 57.298 116.148ZM53.91 106.194H56.066V108.014H52.062V108.938H60.63V108.014H57.032V106.194H59.902V105.256H57.032V103.576H56.066V105.256H54.288C54.428 104.878 54.554 104.486 54.666 104.066L53.756 103.87C53.448 105.046 52.944 106.124 52.272 107.09L53.112 107.608C53.406 107.174 53.672 106.698 53.91 106.194ZM53.266 110.058V113.992H59.538V110.058H53.266ZM58.558 113.054H54.246V110.996H58.558V113.054ZM71.516 103.52L70.872 104.136C71.586 104.682 72.146 105.2 72.566 105.704H69.948C69.92 105.032 69.906 104.318 69.906 103.534H68.87C68.87 104.29 68.884 105.004 68.912 105.704H63.13V110.366C63.088 112.648 62.626 114.426 61.73 115.714L62.5 116.4C63.536 114.888 64.096 112.872 64.152 110.366V109.946H66.574C66.546 111.486 66.504 112.494 66.42 112.97C66.336 113.362 66.14 113.572 65.832 113.586C65.454 113.586 64.992 113.572 64.446 113.544L64.754 114.454C65.202 114.482 65.608 114.51 65.944 114.51C66.644 114.482 67.078 114.174 67.26 113.572C67.442 112.886 67.554 111.36 67.582 108.994H64.152V106.67H68.954C69.066 108.42 69.262 109.89 69.57 111.066C69.724 111.668 69.906 112.228 70.102 112.746C69.136 113.964 67.946 114.888 66.546 115.518L67.106 116.358C68.422 115.77 69.57 114.916 70.55 113.768C70.76 114.202 70.998 114.594 71.25 114.93C71.922 115.77 72.552 116.19 73.14 116.19C73.77 116.19 74.246 115.252 74.582 113.39L73.672 112.886C73.462 114.328 73.224 115.056 72.972 115.07C72.692 115.07 72.314 114.734 71.852 114.062C71.628 113.74 71.418 113.348 71.222 112.9C72.118 111.64 72.846 110.072 73.406 108.224L72.496 107.832C72.062 109.33 71.502 110.646 70.802 111.766C70.704 111.458 70.606 111.136 70.522 110.786C70.27 109.778 70.088 108.406 69.99 106.67H74.302V105.704H72.594L73.238 105.06C72.762 104.542 72.188 104.024 71.516 103.52ZM83.606 103.632V107.804H80.484V108.798H83.606V114.93H79.994V115.924H88.17V114.93H84.642V108.798H87.834V107.804H84.642V103.632H83.606ZM77.558 110.548V116.372H78.552V110.45C79.112 110.842 79.672 111.332 80.246 111.92L80.806 111.052C80.106 110.422 79.364 109.876 78.552 109.414C79.336 108.406 79.924 107.398 80.288 106.39V105.536H78.524L78.818 105.424C78.636 104.836 78.384 104.206 78.076 103.506L77.11 103.772C77.404 104.332 77.656 104.92 77.88 105.536H75.724V106.502H79.266C78.622 108.028 77.32 109.596 75.388 111.192L75.696 112.256C76.382 111.682 76.998 111.108 77.558 110.548ZM95.136 103.562C93.484 105.452 91.426 107.02 88.962 108.28L89.494 109.246C91.986 107.902 93.988 106.306 95.5 104.458C97.152 106.418 99.126 108.014 101.45 109.232L101.996 108.266C99.686 107.118 97.642 105.55 95.864 103.562H95.136ZM92.084 107.86V108.812H98.958V107.86H92.084ZM89.886 110.674V111.654H93.4C92.798 112.802 92.042 113.88 91.146 114.916C91.034 115.028 90.866 115.112 90.614 115.182L90.894 116.064C94.24 115.868 96.998 115.588 99.182 115.238C99.462 115.63 99.714 116.008 99.952 116.386L100.792 115.798C100.106 114.748 99.126 113.516 97.852 112.088L97.068 112.592C97.642 113.236 98.16 113.88 98.636 114.496C96.564 114.776 94.394 114.972 92.112 115.112C93.064 114.118 93.876 112.97 94.548 111.654H101.142V110.674H89.886ZM103.852 103.856L103.362 104.612C104.132 104.864 104.888 105.2 105.644 105.648L106.176 104.836C105.476 104.444 104.692 104.122 103.852 103.856ZM108.36 103.52C108.024 104.514 107.408 105.354 106.484 106.026L107.072 106.81C107.604 106.39 108.066 105.928 108.458 105.424H110.25C110.082 106.208 109.732 106.824 109.228 107.286C108.612 107.818 107.618 108.224 106.246 108.518L106.624 109.414C108.192 109.05 109.312 108.532 109.998 107.888C110.208 107.664 110.39 107.426 110.558 107.174C111.426 108.294 112.882 109.05 114.926 109.47L115.29 108.574C113.134 108.168 111.692 107.426 110.964 106.348C111.076 106.068 111.16 105.76 111.216 105.424H113.596C113.428 105.97 113.232 106.46 112.994 106.894L113.96 107.188C114.24 106.516 114.464 105.83 114.632 105.144V104.542H108.99C109.13 104.262 109.242 103.954 109.354 103.646L108.36 103.52ZM113.68 109.792H104.678V114.062H105.686V110.73H112.672V113.95H113.68V109.792ZM108.78 111.262C108.668 112.704 108.29 113.726 107.66 114.328C106.946 114.972 105.476 115.35 103.25 115.476L103.642 116.372C106.162 116.176 107.786 115.686 108.514 114.93C109.172 114.314 109.592 113.124 109.788 111.346L108.78 111.262ZM105.798 106.488C105.07 107.188 104.174 107.846 103.11 108.448L103.782 109.232C104.818 108.588 105.686 107.902 106.386 107.174L105.798 106.488ZM110.11 113.908L109.592 114.678C111.286 115.112 112.938 115.714 114.534 116.47L115.08 115.63C113.582 114.958 111.93 114.384 110.11 113.908ZM117.51 103.842L116.824 104.5C117.888 105.27 118.728 105.998 119.344 106.67L120.03 105.984C119.344 105.284 118.504 104.57 117.51 103.842ZM117.258 107.272L116.572 107.93C117.58 108.672 118.35 109.372 118.91 110.03L119.596 109.344C118.966 108.658 118.182 107.972 117.258 107.272ZM118.882 111.052C118.28 112.718 117.566 114.342 116.726 115.938L117.664 116.358C118.434 114.804 119.134 113.152 119.75 111.388L118.882 111.052ZM122.634 106.348V111.262H125.028V114.986C125.028 115.336 124.86 115.518 124.552 115.518C124.216 115.518 123.866 115.49 123.502 115.448L123.712 116.358H124.888C125.616 116.358 125.994 115.98 125.994 115.224V111.262H128.318V106.348H125.588C125.742 105.928 125.868 105.494 125.966 105.032H129.06V104.122H120.66V109.106C120.618 111.934 120.156 114.132 119.288 115.714L120.044 116.386C121.052 114.566 121.584 112.13 121.64 109.106V105.032H125.014C124.916 105.48 124.79 105.914 124.622 106.348H122.634ZM127.422 110.45H123.53V109.19H127.422V110.45ZM123.53 108.434V107.146H127.422V108.434H123.53ZM122.984 112.256C122.69 113.32 122.214 114.286 121.556 115.168L122.368 115.672C123.012 114.762 123.516 113.684 123.88 112.452L122.984 112.256ZM127.744 112.186L126.904 112.48C127.436 113.404 127.94 114.454 128.388 115.658L129.242 115.28C128.822 114.188 128.318 113.152 127.744 112.186ZM141.948 111.318C141.304 111.99 140.618 112.508 139.904 112.844C139.428 112.144 139.106 111.374 138.91 110.534H141.738V104.78H138.574C138.364 104.304 138.14 103.87 137.916 103.506L136.908 103.674C137.146 104.01 137.37 104.374 137.566 104.78H134.808V114.958C134.808 115.168 134.626 115.322 134.276 115.406L134.5 116.316C136.25 115.98 137.706 115.63 138.854 115.266L138.63 114.356C137.678 114.692 136.726 114.972 135.774 115.196V110.534H137.972C138.49 113.012 139.988 114.958 142.466 116.358L143.012 115.504C141.976 114.958 141.122 114.314 140.464 113.558C141.276 113.194 141.99 112.662 142.62 111.99L141.948 111.318ZM131.42 103.772L130.706 104.472C131.812 105.228 132.68 105.928 133.31 106.6L134.024 105.872C133.324 105.172 132.456 104.472 131.42 103.772ZM131.07 107.062L130.356 107.748C131.406 108.504 132.232 109.218 132.82 109.89L133.534 109.176C132.876 108.476 132.05 107.762 131.07 107.062ZM133.044 110.954C132.358 112.606 131.56 114.23 130.65 115.812L131.658 116.246C132.498 114.706 133.254 113.068 133.94 111.318L133.044 110.954ZM135.774 108.112H140.758V109.624H135.774V108.112ZM140.758 107.244H135.774V105.704H140.758V107.244ZM146.268 106.782H148.27C148.256 107.09 148.2 107.384 148.116 107.664H146.044L146.268 106.782ZM149.25 106.782H151.294V107.664H149.124C149.18 107.384 149.222 107.09 149.25 106.782ZM152.274 106.782H155.368V104.262H152.274V103.534H151.294V104.262H149.25V103.534H148.27V104.262H145.078V105.088H148.27V105.984H145.442L144.952 108.434H147.71C147.626 108.546 147.528 108.658 147.43 108.77C146.884 109.274 145.904 109.68 144.476 109.988L144.98 110.786C145.344 110.702 145.708 110.604 146.058 110.492V114.216H147.052V111.304H153.912V114.216H154.906V110.408H146.31C147.122 110.128 147.738 109.778 148.186 109.358C148.438 109.092 148.662 108.784 148.844 108.434H151.294V110.03H152.274V108.434H155.088C155.074 108.798 155.032 109.036 154.948 109.162C154.836 109.302 154.57 109.372 154.136 109.372C153.912 109.372 153.674 109.358 153.422 109.344L153.618 110.058C153.814 110.058 154.038 110.072 154.262 110.072C155.018 110.072 155.508 109.918 155.718 109.61C155.928 109.344 156.04 108.7 156.04 107.664H152.274V106.782ZM149.25 105.088H151.294V105.984H149.25V105.088ZM152.274 105.088H154.416V105.984H152.274V105.088ZM151.238 114.02L150.734 114.776C152.414 115.182 154.052 115.742 155.648 116.47L156.194 115.63C154.696 114.986 153.044 114.454 151.238 114.02ZM149.936 111.794C149.824 113.068 149.46 113.978 148.83 114.524C148.116 115.084 146.646 115.406 144.42 115.518L144.826 116.414C147.346 116.232 148.956 115.798 149.684 115.112C150.342 114.552 150.762 113.488 150.944 111.892L149.936 111.794ZM158.848 113.334C158.596 113.334 158.4 113.418 158.246 113.586C158.078 113.754 157.994 113.95 157.994 114.202C157.994 114.44 158.078 114.636 158.246 114.804C158.4 114.972 158.596 115.056 158.848 115.056C159.072 115.056 159.282 114.972 159.45 114.804C159.618 114.636 159.702 114.44 159.702 114.202C159.702 113.95 159.618 113.754 159.45 113.586C159.282 113.418 159.072 113.334 158.848 113.334ZM161.399 106.138V107.104H165.977C164.941 109.582 163.261 111.612 160.909 113.18L161.483 114.118C163.975 112.284 165.739 109.946 166.775 107.104H166.873V112.564H163.989V113.53H166.873V116.4H167.909V113.53H170.905V112.564H167.909V107.104H168.021C168.973 109.638 170.681 111.92 173.145 113.936L173.831 113.068C171.423 111.318 169.743 109.33 168.805 107.104H173.369V106.138H167.909V103.604H166.873V106.138H161.399ZM181.595 103.59H180.573C180.573 104.122 180.559 104.864 180.545 105.816C180.419 109.848 178.431 113.054 174.581 115.42L175.197 116.316C178.305 114.314 180.293 111.794 181.133 108.742C182.127 111.906 184.059 114.426 186.915 116.302L187.573 115.42C184.311 113.418 182.281 110.506 181.497 106.698C181.553 105.83 181.595 104.794 181.595 103.59ZM199.495 105.228H194.133C194.413 104.752 194.637 104.22 194.791 103.66L193.769 103.52C193.629 104.108 193.391 104.668 193.083 105.228H190.087V116.386H191.109V115.518H198.473V116.386H199.495V105.228ZM191.109 114.552V112.27H198.473V114.552H191.109ZM191.109 111.346V109.204H198.473V111.346H191.109ZM191.109 108.28V106.194H198.473V108.28H191.109ZM214.371 104.094H203.115V109.54C203.087 112.13 202.737 114.16 202.065 115.63L202.821 116.302C203.647 114.608 204.081 112.354 204.137 109.54V104.962H208.813C208.729 105.27 208.617 105.578 208.477 105.886H205.691V109.848H209.177V110.94C209.177 111.276 209.009 111.444 208.687 111.444C208.379 111.444 208.043 111.416 207.707 111.374L207.903 112.242H208.995C209.765 112.242 210.157 111.878 210.157 111.164V109.848H213.349V105.886H209.499C209.625 105.592 209.737 105.284 209.821 104.962H214.371V104.094ZM212.383 109.092H206.671V108.168H212.383V109.092ZM206.671 107.496V106.6H212.383V107.496H206.671ZM210.731 116.26C211.179 116.26 211.501 116.162 211.697 115.994C211.935 115.77 212.089 115.168 212.173 114.216L211.263 113.922C211.221 114.622 211.137 115.042 211.011 115.182C210.927 115.294 210.773 115.35 210.549 115.35H208.267C207.903 115.35 207.735 115.21 207.735 114.958V112.83H206.755V115.14C206.755 115.882 207.161 116.26 207.987 116.26H210.731ZM205.313 112.942C204.893 113.964 204.389 114.846 203.801 115.574L204.599 116.148C205.187 115.364 205.705 114.426 206.153 113.348L205.313 112.942ZM209.303 112.634L208.617 113.068C209.177 113.74 209.611 114.342 209.919 114.902L210.633 114.412C210.325 113.894 209.877 113.306 209.303 112.634ZM212.705 112.606L211.921 113.096C212.789 114.146 213.461 115.112 213.965 115.98L214.777 115.406C214.287 114.608 213.601 113.67 212.705 112.606ZM206.867 110.17C206.195 110.758 205.383 111.262 204.417 111.71L205.005 112.48C205.985 111.976 206.825 111.388 207.497 110.73L206.867 110.17ZM211.515 110.212L211.039 110.926C212.033 111.318 212.999 111.85 213.951 112.536L214.497 111.696C213.601 111.108 212.607 110.618 211.515 110.212ZM222.597 105.928L221.771 106.32C222.065 106.824 222.345 107.384 222.625 108H220.483V108.966H228.295V108H226.027C226.349 107.44 226.643 106.81 226.909 106.11L225.957 105.774C225.677 106.558 225.355 107.3 224.963 108H223.591C223.283 107.244 222.961 106.558 222.597 105.928ZM224.445 103.478L223.395 103.646C223.563 103.996 223.731 104.388 223.885 104.808H220.805V105.732H228.043V104.808H224.907C224.753 104.318 224.599 103.87 224.445 103.478ZM217.459 116.274C218.285 116.274 218.705 115.868 218.705 115.056V110.912C219.097 110.73 219.489 110.534 219.881 110.324V109.302C219.489 109.512 219.097 109.708 218.705 109.904V107.216H219.867V106.25H218.705V103.604H217.669V106.25H215.961V107.216H217.669V110.338C217.025 110.59 216.367 110.8 215.709 110.968L215.961 111.976C216.535 111.794 217.109 111.584 217.669 111.36V114.804C217.669 115.168 217.473 115.35 217.109 115.35C216.773 115.35 216.409 115.322 216.031 115.294L216.241 116.274H217.459ZM223.213 109.358C223.059 109.75 222.891 110.142 222.695 110.562H220.301V111.542H222.177C221.883 112.074 221.547 112.62 221.169 113.194C222.149 113.586 223.059 113.964 223.913 114.356C223.045 114.86 221.785 115.252 220.161 115.546L220.553 116.456C222.569 116.064 224.039 115.518 224.963 114.846C226.083 115.378 227.049 115.896 227.889 116.414L228.435 115.602C227.553 115.098 226.629 114.622 225.677 114.174C226.335 113.46 226.769 112.578 226.979 111.542H228.519V110.562H223.717C223.885 110.212 224.039 109.848 224.179 109.47L223.213 109.358ZM226.027 111.542C225.803 112.438 225.383 113.166 224.753 113.754C223.997 113.418 223.213 113.096 222.401 112.788C222.681 112.396 222.947 111.976 223.199 111.542H226.027ZM240.889 103.674C238.075 104.066 234.533 104.262 230.263 104.262L230.557 105.172C235.051 105.172 238.663 104.948 241.379 104.528L240.889 103.674ZM241.743 107.874H239.083C239.545 107.272 239.993 106.53 240.441 105.634L239.433 105.256C239.041 106.18 238.565 107.062 238.005 107.874H230.039V111.066H231.019V108.826H240.763V111.066H241.743V107.874ZM232.013 105.522L231.131 105.97C231.621 106.516 232.083 107.146 232.517 107.846L233.385 107.412C232.965 106.726 232.503 106.096 232.013 105.522ZM235.345 105.368L234.435 105.802C234.911 106.362 235.345 107.006 235.765 107.734L236.661 107.272C236.241 106.572 235.793 105.942 235.345 105.368ZM231.747 110.198V111.122H232.307C232.853 112.2 233.763 113.152 235.037 113.964C233.595 114.594 231.817 115.098 229.703 115.49L230.235 116.442C232.545 115.966 234.477 115.336 236.045 114.552C237.501 115.308 239.335 115.938 241.547 116.428L242.135 115.532C240.133 115.126 238.439 114.608 237.053 113.978C238.369 113.166 239.335 112.186 239.951 111.066V110.198H231.747ZM233.343 111.122H238.831C238.187 112.018 237.263 112.802 236.031 113.474C234.813 112.802 233.917 112.018 233.343 111.122ZM254.281 116.358C255.065 116.358 255.471 115.924 255.471 115.07V105.844H252.461C252.489 105.144 252.517 104.374 252.517 103.548H251.537C251.537 104.36 251.509 105.116 251.481 105.844H248.331V116.442H249.283V106.824H251.425C251.369 107.426 251.313 107.986 251.229 108.504C250.949 110.044 250.389 111.318 249.549 112.326L250.193 113.11C251.019 112.158 251.607 111.01 251.957 109.652C252.545 110.842 253.035 111.948 253.427 112.984L254.211 112.424C253.735 111.276 253.063 109.946 252.195 108.434C252.279 107.944 252.335 107.412 252.391 106.824H254.519V114.86C254.519 115.252 254.323 115.462 253.959 115.462L252.797 115.406L253.049 116.358H254.281ZM247.743 113.6C246.469 114.118 244.985 114.524 243.291 114.832L243.417 115.798C245.027 115.476 246.469 115.056 247.743 114.552V113.6ZM245.531 103.59C245.027 105.214 244.425 106.67 243.725 107.93C243.585 108.112 243.445 108.238 243.291 108.308L243.543 109.232L245.755 108.896C245.027 110.268 244.397 111.248 243.879 111.822C243.753 111.948 243.599 112.046 243.417 112.116L243.697 113.012C244.957 112.816 246.273 112.466 247.645 111.934V111.066C246.721 111.416 245.811 111.696 244.887 111.906C245.685 110.87 246.693 109.12 247.925 106.684L247.015 106.348L246.217 107.986C245.629 108.098 245.041 108.182 244.453 108.252C245.125 107.174 245.797 105.746 246.469 103.954L245.531 103.59ZM262.675 106.81C261.779 110.534 259.833 113.39 256.837 115.35L257.439 116.204C260.379 114.3 262.311 111.556 263.235 107.986C263.305 108.154 263.375 108.35 263.459 108.574C264.901 112.27 266.749 114.818 269.017 116.19L269.647 115.378C267.435 113.992 265.685 111.626 264.369 108.28C263.501 106.012 262.451 104.43 261.205 103.562L260.365 104.094C261.261 104.738 262.031 105.634 262.675 106.81ZM272.147 108.56V116.428H273.141V106.908C273.631 105.956 274.037 104.948 274.373 103.87L273.435 103.436C272.805 105.62 271.811 107.566 270.439 109.26L270.761 110.338C271.265 109.778 271.727 109.176 272.147 108.56ZM274.317 105.41V106.362H283.431V105.41H279.021L279.553 105.214C279.385 104.696 279.161 104.136 278.867 103.52L277.901 103.786C278.181 104.318 278.419 104.85 278.629 105.41H274.317ZM275.605 107.496V108.406H282.227V107.496H275.605ZM275.605 109.47V110.394H282.227V109.47H275.605ZM282.479 111.542H275.339V116.4H276.319V115.644H281.499V116.4H282.479V111.542ZM276.319 114.692V112.48H281.499V114.692H276.319ZM286.673 108.448H290.229V110.898H286.673V108.448ZM286.617 111.822H290.229V115.924H291.265V111.822H295.073V114.258C295.073 114.846 294.807 115.14 294.303 115.14C293.827 115.14 293.309 115.112 292.749 115.084L293.015 116.078H294.625C295.605 116.078 296.095 115.588 296.095 114.608V104.122H285.665V110.842C285.637 112.76 285.175 114.342 284.279 115.588L285.049 116.274C285.945 115.098 286.463 113.614 286.617 111.822ZM295.073 110.898H291.265V108.448H295.073V110.898ZM295.073 107.51H291.265V105.102H295.073V107.51ZM290.229 105.102V107.51H286.673V105.102H290.229ZM299.547 108.56V116.428H300.541V106.908C301.031 105.956 301.437 104.948 301.773 103.87L300.835 103.436C300.205 105.62 299.211 107.566 297.839 109.26L298.161 110.338C298.665 109.778 299.127 109.176 299.547 108.56ZM301.717 105.41V106.362H310.831V105.41H306.421L306.953 105.214C306.785 104.696 306.561 104.136 306.267 103.52L305.301 103.786C305.581 104.318 305.819 104.85 306.029 105.41H301.717ZM303.005 107.496V108.406H309.627V107.496H303.005ZM303.005 109.47V110.394H309.627V109.47H303.005ZM309.879 111.542H302.739V116.4H303.719V115.644H308.899V116.4H309.879V111.542ZM303.719 114.692V112.48H308.899V114.692H303.719ZM313.765 104.598V111.444H322.529V104.598H317.909C318.077 104.29 318.217 103.968 318.329 103.618L317.279 103.478C317.181 103.87 317.041 104.234 316.845 104.598H313.765ZM321.549 110.576H314.745V109.4H321.549V110.576ZM314.745 108.588V107.44H321.549V108.588H314.745ZM314.745 106.628V105.48H321.549V106.628H314.745ZM313.065 112.396C312.799 113.488 312.365 114.496 311.763 115.392L312.617 115.938C313.219 114.986 313.681 113.88 314.017 112.592L313.065 112.396ZM319.813 116.19C320.345 116.19 320.751 116.078 321.003 115.868C321.283 115.602 321.479 114.888 321.591 113.712L320.625 113.404C320.569 114.314 320.443 114.86 320.275 115.056C320.163 115.196 319.939 115.28 319.617 115.28H316.509C316.187 115.28 316.033 115.112 316.033 114.79V112.326H315.011V115C315.011 115.784 315.403 116.19 316.215 116.19H319.813ZM317.937 111.822L317.195 112.284C317.923 113.012 318.483 113.67 318.903 114.272L319.673 113.74C319.267 113.194 318.693 112.55 317.937 111.822ZM322.459 112.144L321.675 112.634C322.529 113.74 323.215 114.748 323.719 115.658L324.517 115.098C324.041 114.258 323.355 113.264 322.459 112.144ZM326.247 106.404V107.384H328.795V110.758H325.547V111.738H338.035V110.758H334.787V107.384H337.349V106.404H334.787V103.548H333.765V106.404H329.817V103.492H328.795V106.404H326.247ZM329.817 110.758V107.384H333.765V110.758H329.817ZM329.817 112.228C328.669 113.46 327.241 114.552 325.547 115.476L326.247 116.372C327.955 115.392 329.397 114.23 330.573 112.914L329.817 112.228ZM333.877 112.256L333.149 112.956C334.885 114.16 336.243 115.294 337.237 116.358L338.021 115.56C336.901 114.468 335.529 113.362 333.877 112.256ZM341.305 106.53V109.358H349.691V106.53H341.305ZM348.725 108.49H342.271V107.398H348.725V108.49ZM345.337 103.534L344.189 103.716C344.427 104.024 344.651 104.374 344.861 104.738H339.415V105.69H351.567V104.738H345.967C345.771 104.29 345.561 103.898 345.337 103.534ZM339.107 112.9V113.824H345.239V114.832C345.239 115.308 345.015 115.546 344.595 115.546C344.147 115.546 343.531 115.518 342.747 115.476L343.013 116.4H344.987C345.813 116.4 346.233 115.966 346.233 115.126V113.824H351.875V112.9H346.233V112.634C347.759 112.046 349.117 111.486 350.293 110.94V110.212H340.465V111.122H348.305C347.129 111.612 346.107 112.018 345.239 112.354V112.9H339.107ZM353.549 104.192V105.172H358.617V110.464H352.989V111.43H358.617V116.386H359.653V111.43H365.393V110.464H359.653V105.172H364.861V104.192H353.549ZM355.257 106.068L354.319 106.53C354.851 107.468 355.355 108.532 355.831 109.736L356.769 109.274C356.293 108.112 355.789 107.048 355.257 106.068ZM363.195 105.998C362.789 107.062 362.243 108.126 361.557 109.218L362.453 109.68C363.139 108.616 363.699 107.538 364.119 106.432L363.195 105.998ZM377.567 110.576H368.215V116.414H369.237V115.714H376.545V116.414H377.567V110.576ZM369.237 114.748V111.542H376.545V114.748H369.237ZM367.221 109.134C370.861 108.994 374.151 108.798 377.105 108.532C377.441 109.064 377.791 109.61 378.141 110.198L379.121 109.722C378.085 108.028 376.965 106.474 375.761 105.074L374.851 105.508C375.411 106.152 375.957 106.866 376.489 107.622C374.081 107.846 371.533 108.028 368.845 108.14C370.105 107.104 371.379 105.676 372.639 103.884L371.603 103.534C369.783 106.208 368.257 107.762 367.025 108.182L367.221 109.134ZM386.661 113.6C388.537 114.328 390.357 115.28 392.149 116.484L392.695 115.616C391.043 114.552 389.209 113.642 387.221 112.858C387.347 112.662 387.473 112.452 387.599 112.228H392.513V111.276H388.019C388.327 110.408 388.495 109.414 388.537 108.308V106.656H387.557V108.308C387.515 109.414 387.319 110.408 386.955 111.276H380.683V112.228H386.465C386.325 112.452 386.185 112.662 386.017 112.858C384.981 113.978 383.161 114.888 380.557 115.56L381.117 116.414C383.679 115.742 385.527 114.804 386.661 113.6ZM382.545 108.574L382.041 109.33C382.993 109.708 383.931 110.24 384.827 110.912L385.345 110.114C384.505 109.526 383.567 109.008 382.545 108.574ZM383.805 106.572L383.287 107.328C384.267 107.72 385.233 108.266 386.171 108.966L386.689 108.168C385.821 107.538 384.855 107.006 383.805 106.572ZM392.275 104.934H387.207C387.025 104.388 386.843 103.898 386.661 103.478L385.625 103.646C385.835 104.038 386.031 104.458 386.199 104.934H380.879V107.622H381.859V105.872H391.295V107.622H392.275V104.934ZM20.812 125.536V126.516H21.904V128.91C21.89 132.032 21.442 134.3 20.546 135.714L21.288 136.372C22.254 134.888 22.772 132.55 22.842 129.386H24.424C24.41 132.326 24.354 134.062 24.27 134.622C24.172 135.126 23.864 135.378 23.36 135.378C23.136 135.378 22.898 135.35 22.618 135.322L22.842 136.232C23.15 136.26 23.374 136.274 23.5 136.274C24.494 136.274 25.054 135.854 25.18 135.014C25.292 134.202 25.362 132.018 25.362 128.462H22.856V126.516H25.698V125.536H24.004C23.738 124.766 23.458 124.08 23.178 123.478L22.156 123.66C22.478 124.22 22.772 124.85 23.038 125.536H20.812ZM27.644 126.04H33.062V125.102H28.022C28.19 124.654 28.344 124.192 28.498 123.716L27.56 123.506C27 125.34 26.3 126.824 25.432 127.958L26.09 128.742C26.678 127.958 27.196 127.062 27.644 126.04ZM32.53 127.902L30.206 128.756V126.838H29.282V129.092L27.854 129.61V127.972H26.958V129.932L25.866 130.338V131.248L26.958 130.856V134.692C26.958 135.756 27.378 136.302 28.246 136.302H31.508C32.082 136.302 32.502 136.19 32.768 135.98C33.076 135.728 33.286 135.014 33.398 133.852L32.53 133.572C32.46 134.468 32.334 135.014 32.138 135.196C31.97 135.336 31.704 135.42 31.34 135.42H28.54C28.078 135.42 27.854 135.112 27.854 134.51V130.534L29.282 130.016V134.3H30.206V129.68L31.62 129.176C31.62 130.898 31.592 131.892 31.536 132.158C31.48 132.438 31.34 132.592 31.088 132.592C30.92 132.592 30.71 132.578 30.486 132.578L30.738 133.446H30.92C31.76 133.446 32.25 133.166 32.362 132.62C32.474 132.074 32.53 130.506 32.53 127.902ZM40.14 126.614V127.566H42.884V128.21C42.87 128.826 42.828 129.414 42.772 129.974H39.93V130.94H42.632C42.198 133.124 41.19 134.692 39.622 135.644L40.224 136.442C41.82 135.406 42.898 133.81 43.444 131.654C43.85 133.208 44.858 134.79 46.468 136.386L47.168 135.644C45.432 134.048 44.396 132.48 44.06 130.94H46.958V129.974H43.738C43.808 129.344 43.85 128.686 43.85 127.986V127.566H46.72V126.614H44.634C45.082 125.886 45.502 125.004 45.922 123.94L44.998 123.59C44.62 124.668 44.158 125.676 43.626 126.614H40.14ZM41.526 123.674L40.756 124.164C41.316 124.976 41.75 125.704 42.072 126.376L42.828 125.858C42.52 125.228 42.086 124.5 41.526 123.674ZM34.344 124.136V125.074H35.198V133.656L34.316 133.796L34.568 134.748C35.772 134.524 36.92 134.258 38.04 133.978V136.47H39.006V133.712C39.314 133.628 39.636 133.53 39.944 133.432V132.452C39.636 132.55 39.328 132.648 39.006 132.76V125.074H39.916V124.136H34.344ZM36.164 133.474V130.968H38.04V133.04C37.424 133.194 36.808 133.334 36.164 133.474ZM36.164 130.044V128.042H38.04V130.044H36.164ZM36.164 127.132V125.074H38.04V127.132H36.164ZM54.036 123.548C52.384 125.494 50.326 127.118 47.834 128.434L48.366 129.4C50.858 128 52.874 126.362 54.4 124.458C56.052 126.474 58.04 128.112 60.378 129.372L60.924 128.406C58.6 127.23 56.542 125.606 54.764 123.548H54.036ZM58.824 130.744H49.976V136.386H50.956V135.546H57.844V136.386H58.824V130.744ZM50.956 134.58V131.696H57.844V134.58H50.956ZM50.76 128V128.966H58.04V128H50.76ZM63.97 128.686V131.374H65.006V127.902C65.608 127.398 66.098 126.852 66.49 126.278L65.594 125.858C64.838 126.908 63.648 127.832 61.996 128.644L62.304 129.652C62.906 129.344 63.466 129.022 63.97 128.686ZM63.382 132.046C63.074 133.194 62.57 134.23 61.87 135.182L62.738 135.728C63.438 134.748 63.97 133.586 64.348 132.242L63.382 132.046ZM68.492 131.64L67.596 131.934C68.1 132.606 68.548 133.362 68.954 134.23L69.85 133.838C69.458 133.054 69.01 132.326 68.492 131.64ZM72.468 131.85L71.572 132.13C72.244 133.068 72.874 134.146 73.434 135.35L74.358 134.944C73.826 133.838 73.196 132.802 72.468 131.85ZM70.116 136.19C70.62 136.19 70.998 136.078 71.236 135.868C71.502 135.616 71.684 134.902 71.782 133.754L70.83 133.446C70.774 134.286 70.662 134.804 70.522 134.986C70.396 135.126 70.2 135.21 69.934 135.21H67.064C66.686 135.21 66.504 135.028 66.504 134.692V132.116H65.496V134.902C65.496 135.756 65.902 136.19 66.742 136.19H70.116ZM65.118 123.492C64.488 124.36 63.48 125.144 62.08 125.83L62.388 126.81C64.04 125.97 65.244 125.004 66 123.912L65.118 123.492ZM70.312 125.074V130.142H68.59V126.32H67.638V130.142H66.476V131.094H74.12V130.142H71.278V128.056H73.574V127.132H71.278V125.074H73.854V124.122H66.84V125.074H70.312ZM75.78 125.816V126.782H83.088L83.116 127.594C83.186 129.596 83.466 131.388 83.942 132.984C83.116 134.02 82.136 134.888 80.988 135.574L81.52 136.372C82.57 135.756 83.508 134.986 84.32 134.076C84.922 135.532 85.622 136.302 86.434 136.414C87.288 136.414 87.848 135.322 88.128 133.166L87.232 132.718C87.092 134.454 86.798 135.336 86.378 135.364C85.79 135.168 85.314 134.482 84.95 133.292C86 131.892 86.798 130.198 87.358 128.182L86.448 127.79C86 129.372 85.398 130.772 84.628 131.99C84.32 130.464 84.138 128.798 84.096 126.978V126.782H87.806V125.816H84.082C84.054 124.64 84.04 123.87 84.04 123.534H83.004C83.004 123.926 83.018 124.696 83.06 125.816H75.78ZM75.71 130.184V131.164H77.334C77.222 133.152 76.634 134.636 75.57 135.602L76.326 136.26C77.516 135.154 78.174 133.46 78.314 131.164H80.05V134.804H81.03V131.164H82.458V130.184H81.03V127.678H80.05V130.184H78.342V127.678H77.362V130.184H75.71ZM85.426 123.562L84.796 124.178C85.552 124.752 86.14 125.298 86.574 125.802L87.232 125.144C86.742 124.612 86.14 124.094 85.426 123.562ZM90.824 127.692V128.574H94.996V129.932H89.27V130.814H98.006V132.158H90.096V133.04H98.006V135C98.006 135.336 97.81 135.518 97.418 135.518C96.83 135.518 96.2 135.49 95.528 135.448L95.738 136.4H97.768C98.594 136.4 99.014 136.008 99.014 135.238V133.04H101.114V132.158H99.014V130.814H101.716V129.932H96.004V128.574H100.12V127.692H96.004V126.81H94.996V127.692H90.824ZM92.462 133.432L91.65 133.936C92.378 134.664 92.966 135.322 93.4 135.924L94.184 135.378C93.792 134.818 93.218 134.16 92.462 133.432ZM91.328 125.438H91.888C92.28 125.984 92.63 126.544 92.91 127.132L93.82 126.796C93.596 126.376 93.302 125.928 92.938 125.438H95.304V124.584H91.72C91.832 124.304 91.93 124.01 92.042 123.702L91.09 123.492C90.712 124.64 90.11 125.704 89.298 126.67L90.166 127.216C90.6 126.684 90.992 126.082 91.328 125.438ZM97.012 125.396H97.838C98.258 125.942 98.608 126.502 98.902 127.09L99.77 126.768C99.56 126.348 99.266 125.886 98.888 125.396H101.422V124.542H97.39C97.488 124.262 97.586 123.968 97.67 123.674L96.718 123.478C96.438 124.458 96.004 125.34 95.388 126.152L96.228 126.684C96.508 126.292 96.774 125.872 97.012 125.396ZM107.688 125.144V126.054H109.326V127.832H107.352V128.784H115.64V127.832H113.638V126.054H115.29V125.144H113.638V123.632H112.658V125.144H110.306V123.632H109.326V125.144H107.688ZM110.306 127.832V126.054H112.658V127.832H110.306ZM114.618 129.89H108.472V136.302H109.438V135.686H113.652V136.316H114.618V129.89ZM109.438 134.776V133.236H113.652V134.776H109.438ZM109.438 132.34V130.8H113.652V132.34H109.438ZM104.454 136.246C105.238 136.246 105.644 135.826 105.644 135.014V131.08C106.162 130.842 106.68 130.59 107.198 130.31V129.316C106.694 129.596 106.176 129.862 105.644 130.1V127.104H107.1V126.138H105.644V123.576H104.65V126.138H102.956V127.104H104.65V130.506C104.006 130.744 103.362 130.954 102.69 131.122L102.942 132.13C103.502 131.948 104.076 131.738 104.65 131.514V134.762C104.65 135.154 104.468 135.364 104.118 135.364C103.782 135.364 103.418 135.336 103.04 135.294L103.25 136.246H104.454ZM116.712 125.536V126.516H117.804V128.91C117.79 132.032 117.342 134.3 116.446 135.714L117.188 136.372C118.154 134.888 118.672 132.55 118.742 129.386H120.324C120.31 132.326 120.254 134.062 120.17 134.622C120.072 135.126 119.764 135.378 119.26 135.378C119.036 135.378 118.798 135.35 118.518 135.322L118.742 136.232C119.05 136.26 119.274 136.274 119.4 136.274C120.394 136.274 120.954 135.854 121.08 135.014C121.192 134.202 121.262 132.018 121.262 128.462H118.756V126.516H121.598V125.536H119.904C119.638 124.766 119.358 124.08 119.078 123.478L118.056 123.66C118.378 124.22 118.672 124.85 118.938 125.536H116.712ZM123.544 126.04H128.962V125.102H123.922C124.09 124.654 124.244 124.192 124.398 123.716L123.46 123.506C122.9 125.34 122.2 126.824 121.332 127.958L121.99 128.742C122.578 127.958 123.096 127.062 123.544 126.04ZM128.43 127.902L126.106 128.756V126.838H125.182V129.092L123.754 129.61V127.972H122.858V129.932L121.766 130.338V131.248L122.858 130.856V134.692C122.858 135.756 123.278 136.302 124.146 136.302H127.408C127.982 136.302 128.402 136.19 128.668 135.98C128.976 135.728 129.186 135.014 129.298 133.852L128.43 133.572C128.36 134.468 128.234 135.014 128.038 135.196C127.87 135.336 127.604 135.42 127.24 135.42H124.44C123.978 135.42 123.754 135.112 123.754 134.51V130.534L125.182 130.016V134.3H126.106V129.68L127.52 129.176C127.52 130.898 127.492 131.892 127.436 132.158C127.38 132.438 127.24 132.592 126.988 132.592C126.82 132.592 126.61 132.578 126.386 132.578L126.638 133.446H126.82C127.66 133.446 128.15 133.166 128.262 132.62C128.374 132.074 128.43 130.506 128.43 127.902ZM133.1 133.012C132.596 133.012 132.162 133.18 131.812 133.516C131.448 133.852 131.28 134.272 131.28 134.776C131.28 135.28 131.448 135.7 131.812 136.036C132.162 136.358 132.596 136.526 133.1 136.526C133.604 136.526 134.024 136.358 134.388 136.022C134.738 135.686 134.92 135.266 134.92 134.776C134.92 134.272 134.738 133.852 134.388 133.516C134.024 133.18 133.604 133.012 133.1 133.012ZM133.1 133.74C133.38 133.74 133.632 133.838 133.842 134.048C134.052 134.244 134.164 134.482 134.164 134.776C134.164 135.056 134.052 135.294 133.842 135.49C133.632 135.686 133.38 135.798 133.1 135.798C132.806 135.798 132.554 135.686 132.358 135.49C132.134 135.294 132.036 135.056 132.036 134.776C132.036 134.482 132.134 134.244 132.358 134.048C132.554 133.838 132.806 133.74 133.1 133.74ZM155.004 125.228H149.642C149.922 124.752 150.146 124.22 150.3 123.66L149.278 123.52C149.138 124.108 148.9 124.668 148.592 125.228H145.596V136.386H146.618V135.518H153.982V136.386H155.004V125.228ZM146.618 134.552V132.27H153.982V134.552H146.618ZM146.618 131.346V129.204H153.982V131.346H146.618ZM146.618 128.28V126.194H153.982V128.28H146.618ZM169.88 124.094H158.624V129.54C158.596 132.13 158.246 134.16 157.574 135.63L158.33 136.302C159.156 134.608 159.59 132.354 159.646 129.54V124.962H164.322C164.238 125.27 164.126 125.578 163.986 125.886H161.2V129.848H164.686V130.94C164.686 131.276 164.518 131.444 164.196 131.444C163.888 131.444 163.552 131.416 163.216 131.374L163.412 132.242H164.504C165.274 132.242 165.666 131.878 165.666 131.164V129.848H168.858V125.886H165.008C165.134 125.592 165.246 125.284 165.33 124.962H169.88V124.094ZM167.892 129.092H162.18V128.168H167.892V129.092ZM162.18 127.496V126.6H167.892V127.496H162.18ZM166.24 136.26C166.688 136.26 167.01 136.162 167.206 135.994C167.444 135.77 167.598 135.168 167.682 134.216L166.772 133.922C166.73 134.622 166.646 135.042 166.52 135.182C166.436 135.294 166.282 135.35 166.058 135.35H163.776C163.412 135.35 163.244 135.21 163.244 134.958V132.83H162.264V135.14C162.264 135.882 162.67 136.26 163.496 136.26H166.24ZM160.822 132.942C160.402 133.964 159.898 134.846 159.31 135.574L160.108 136.148C160.696 135.364 161.214 134.426 161.662 133.348L160.822 132.942ZM164.812 132.634L164.126 133.068C164.686 133.74 165.12 134.342 165.428 134.902L166.142 134.412C165.834 133.894 165.386 133.306 164.812 132.634ZM168.214 132.606L167.43 133.096C168.298 134.146 168.97 135.112 169.474 135.98L170.286 135.406C169.796 134.608 169.11 133.67 168.214 132.606ZM162.376 130.17C161.704 130.758 160.892 131.262 159.926 131.71L160.514 132.48C161.494 131.976 162.334 131.388 163.006 130.73L162.376 130.17ZM167.024 130.212L166.548 130.926C167.542 131.318 168.508 131.85 169.46 132.536L170.006 131.696C169.11 131.108 168.116 130.618 167.024 130.212ZM173.598 124.066V125.018H180.234C179.576 125.382 178.61 125.858 177.35 126.446V127.832H175.446V128.77H177.35V130.086H175.138V131.01H177.35V132.326H174.634V133.278H177.35V134.902C177.35 135.294 177.196 135.49 176.916 135.49C176.37 135.49 175.866 135.476 175.404 135.462L175.67 136.4H177.28C178.008 136.4 178.372 136.008 178.372 135.252V133.278H180.976V132.326H178.372V131.01H180.374V130.086H178.372V128.77H180.094V127.832H178.372V126.908C179.604 126.292 180.724 125.662 181.704 125.018V124.066H173.598ZM183.314 127.034C183.048 127.58 182.754 128.056 182.446 128.448C182.25 128.686 182.04 128.91 181.816 129.12C181.718 128.42 181.676 127.692 181.676 126.922H180.752C180.766 130.394 181.648 133.292 183.412 135.616L184.126 134.902C183.062 133.544 182.348 131.934 181.984 130.086C182.446 129.736 182.824 129.386 183.132 129.036C183.468 128.644 183.804 128.154 184.14 127.538L183.314 127.034ZM171.526 127.426V128.378H173.85C173.626 131.094 172.744 133.25 171.232 134.832L171.876 135.616C173.612 133.88 174.564 131.43 174.746 128.294V127.426H171.526ZM186.122 128.126V129.106H195.656V131.402H186.78V132.368H195.656V134.776H186.038V135.756H195.656V136.302H196.678V128.126H191.96V123.702H190.896V128.126H186.122ZM195.81 124.304C195.362 125.228 194.774 126.152 194.046 127.076L194.956 127.552C195.684 126.642 196.272 125.704 196.72 124.724L195.81 124.304ZM187.116 124.43L186.262 124.962C187.018 125.914 187.606 126.782 188.04 127.566L188.894 126.978C188.474 126.25 187.886 125.396 187.116 124.43ZM210.868 124.388H204.33V136.414H205.296V135.532H209.888V136.4H210.868V124.388ZM205.296 134.58V132.102H209.888V134.58H205.296ZM205.296 131.164V128.686H209.888V131.164H205.296ZM205.296 127.748V125.34H209.888V127.748H205.296ZM201.866 129.078C202.258 129.596 202.72 130.268 203.252 131.08L203.798 130.268C203.154 129.442 202.51 128.686 201.866 128.014V127.272H203.672V126.306H201.866V123.576H200.872V126.306H198.898V127.272H200.844C200.396 129.022 199.668 130.576 198.646 131.934L199.038 132.928C199.794 131.836 200.396 130.632 200.872 129.288V136.386H201.866V129.078ZM214.922 134.818V135.798H224.806V134.818H221.852C222.72 132.746 223.434 130.366 224.022 127.706L223.028 127.44C222.384 130.38 221.628 132.83 220.76 134.818H214.922ZM216.448 128.126L215.566 128.406C216.154 130.03 216.63 131.738 217.008 133.502L217.96 133.264C217.512 131.332 217.008 129.61 216.448 128.126ZM219.15 127.132L218.268 127.412C218.772 129.092 219.178 130.842 219.486 132.662L220.452 132.438C220.06 130.45 219.626 128.672 219.15 127.132ZM219.164 123.45L218.058 123.646C218.338 124.038 218.59 124.458 218.814 124.906H213.62V129.008C213.592 131.85 213.172 134.062 212.388 135.658L213.214 136.4C214.124 134.552 214.6 132.088 214.656 129.008V125.886H225.03V124.906H219.906C219.682 124.374 219.43 123.884 219.164 123.45ZM233.648 123.562V125.816H230.33V126.796H233.648V129.414H229.658V130.394H232.976C231.912 132.9 231.044 134.44 230.386 135.014C230.33 135.042 230.26 135.084 230.176 135.112L230.414 135.994C232.892 135.756 235.188 135.434 237.302 135.042C237.498 135.49 237.68 135.952 237.876 136.442L238.828 136.022C238.198 134.426 237.456 132.914 236.616 131.514L235.65 131.836C236.07 132.536 236.49 133.306 236.896 134.146C235.16 134.482 233.438 134.748 231.716 134.93C232.388 134.048 233.172 132.536 234.068 130.394H238.66V129.414H234.684V126.796H238.282V125.816H234.684V123.562H233.648ZM227.292 123.786L226.578 124.472C227.558 125.214 228.314 125.914 228.874 126.586L229.588 125.858C228.972 125.158 228.202 124.472 227.292 123.786ZM226.956 127.062L226.242 127.748C227.138 128.504 227.838 129.204 228.342 129.862L229.07 129.148C228.496 128.448 227.796 127.748 226.956 127.062ZM228.566 130.94C227.978 132.62 227.264 134.258 226.452 135.854L227.46 136.288C228.202 134.734 228.874 133.068 229.476 131.304L228.566 130.94ZM251.352 129.96V127.818H252.598V126.936H251.352V124.78H248.37V123.562H247.334V124.78H244.758V125.676H247.334V126.936H244.044V127.818H247.334V129.064H244.674V129.96H247.334V131.15H244.506V132.046H247.334V133.348H243.82V134.272H247.334V136.428H248.37V134.272H252.444V133.348H248.37V132.046H251.674V131.15H248.37V129.96H251.352ZM248.37 125.676H250.4V126.936H248.37V125.676ZM248.37 127.818H250.4V129.064H248.37V127.818ZM241.692 130.478V136.4H242.672V129.288C243.05 128.756 243.372 128.182 243.652 127.594L242.77 127.202C242.154 128.588 241.174 129.82 239.83 130.912L240.124 131.878C240.684 131.444 241.216 130.982 241.692 130.478ZM242.644 123.52C242.056 124.822 241.104 125.984 239.802 126.992L240.096 127.972C241.678 126.796 242.826 125.452 243.526 123.926L242.644 123.52ZM254.258 124.472V125.312H259.396V126.222H254.986V127.048H259.396V127.986H253.866V128.854H265.934V127.986H260.404V127.048H264.772V126.222H260.404V125.312H265.486V124.472H260.404V123.59H259.396V124.472H254.258ZM264.198 129.68H255.56V133.978H256.526V130.576H263.232V133.866H264.198V129.68ZM260.656 133.418L260.11 134.244C261.832 134.79 263.498 135.532 265.122 136.484L265.696 135.616C264.184 134.762 262.504 134.034 260.656 133.418ZM259.424 131.318C259.242 132.466 258.766 133.362 257.982 134.006C257.184 134.636 255.896 135.112 254.118 135.448L254.524 136.4C256.554 135.98 257.968 135.406 258.766 134.678C259.676 133.866 260.222 132.774 260.404 131.416L259.424 131.318ZM278.892 124.024C276.932 124.584 274.468 124.878 271.5 124.878L271.822 125.83C272.886 125.83 273.894 125.788 274.846 125.718V129.554H270.772V130.534H274.846V134.93H271.472V135.924H279.256V134.93H275.854V130.534H279.956V129.554H275.854V125.62C277.198 125.466 278.374 125.214 279.382 124.878L278.892 124.024ZM270.38 123.59C269.694 125.704 268.602 127.58 267.09 129.204L267.412 130.282C267.958 129.736 268.462 129.162 268.91 128.574V136.428H269.918V127.076C270.478 126.124 270.954 125.102 271.318 124.024L270.38 123.59ZM283.8 133.012C283.296 133.012 282.862 133.18 282.512 133.516C282.148 133.852 281.98 134.272 281.98 134.776C281.98 135.28 282.148 135.7 282.512 136.036C282.862 136.358 283.296 136.526 283.8 136.526C284.304 136.526 284.724 136.358 285.088 136.022C285.438 135.686 285.62 135.266 285.62 134.776C285.62 134.272 285.438 133.852 285.088 133.516C284.724 133.18 284.304 133.012 283.8 133.012ZM283.8 133.74C284.08 133.74 284.332 133.838 284.542 134.048C284.752 134.244 284.864 134.482 284.864 134.776C284.864 135.056 284.752 135.294 284.542 135.49C284.332 135.686 284.08 135.798 283.8 135.798C283.506 135.798 283.254 135.686 283.058 135.49C282.834 135.294 282.736 135.056 282.736 134.776C282.736 134.482 282.834 134.244 283.058 134.048C283.254 133.838 283.506 133.74 283.8 133.74Z" fill="black"/>
</svg>
